<svg width="450" height="450" viewBox="0 0 450 450" fill="none" xmlns="http://www.w3.org/2000/svg">
<rect width="450" height="450" fill="#F9423A"/>
<path d="M432 246.086V199.914C432 194.505 428.651 189.662 423.591 187.752L229.591 114.526C226.632 113.409 223.368 113.409 220.409 114.526L26.4093 187.752C21.349 189.662 18 194.505 18 199.914V246.086C18 251.495 21.349 256.338 26.4093 258.248L220.409 331.474C223.368 332.591 226.632 332.591 229.591 331.474L423.591 258.248C428.651 256.338 432 251.495 432 246.086Z" fill="#32325D" stroke="#F6F3EA" stroke-width="6" stroke-linejoin="round"/>
<path d="M165.641 182.99C164.84 181.683 164.064 180.415 163.312 179.187C162.56 177.959 161.718 176.583 160.785 175.059L155.73 166.803C154.77 165.234 153.903 163.818 153.13 162.556C152.357 161.294 151.563 159.998 150.749 158.667C151.704 158.082 152.705 157.47 153.751 156.829C154.808 156.182 155.894 155.517 157.009 154.835C158.135 154.145 159.272 153.449 160.42 152.746C162.274 151.611 164.086 150.869 165.858 150.519C167.629 150.169 169.326 150.209 170.949 150.638C172.583 151.06 174.121 151.862 175.563 153.042C176.999 154.212 178.304 155.757 179.481 157.679C180.532 159.396 181.281 161.142 181.727 162.917C182.177 164.674 182.237 166.419 181.907 168.153C181.589 169.881 180.797 171.561 179.531 173.196C178.265 174.831 176.444 176.376 174.067 177.831C172.975 178.5 171.952 179.126 170.997 179.711C170.042 180.296 169.126 180.856 168.251 181.393C167.375 181.929 166.505 182.461 165.641 182.99ZM168.506 175.069L171.303 173.356C173.055 172.284 174.233 171.093 174.839 169.784C175.456 168.469 175.63 167.08 175.361 165.619C175.091 164.158 174.501 162.682 173.589 161.193C172.899 160.067 172.136 159.127 171.3 158.373C170.474 157.612 169.581 157.073 168.62 156.754C167.663 156.417 166.651 156.334 165.582 156.504C164.506 156.662 163.377 157.103 162.195 157.827L159.107 159.717C159.574 160.479 160.047 161.252 160.527 162.037C161.001 162.81 161.54 163.692 162.146 164.681L165.572 170.276C166.149 171.219 166.672 172.072 167.138 172.834C167.604 173.596 168.061 174.341 168.506 175.069Z" fill="#F6F3EA"/>
<path d="M188.351 169.439C187.836 167.995 187.336 166.595 186.852 165.239C186.368 163.882 185.826 162.363 185.225 160.68L181.972 151.563C181.353 149.83 180.795 148.267 180.298 146.873C179.8 145.479 179.289 144.048 178.765 142.578L196.603 136.212L198.411 141.279C197.256 141.691 196.013 142.135 194.682 142.61C193.363 143.081 191.806 143.636 190.01 144.277L183.681 146.536L185.18 141.393C185.704 142.862 186.215 144.294 186.713 145.688C187.21 147.082 187.768 148.645 188.387 150.378L190.941 157.536C191.537 159.206 192.079 160.726 192.568 162.094C193.052 163.451 193.552 164.851 194.067 166.295L190.047 163.122L196.432 160.843C197.926 160.309 199.339 159.805 200.67 159.33C202.014 158.851 203.307 158.389 204.551 157.945L206.359 163.012L188.351 169.439ZM189.011 156.59L187.33 151.881L192.246 150.126C193.904 149.534 195.323 149.028 196.503 148.607C197.684 148.185 198.82 147.78 199.913 147.39L201.593 152.099C200.438 152.511 199.27 152.928 198.09 153.349C196.909 153.771 195.522 154.266 193.927 154.835L189.011 156.59Z" fill="#F6F3EA"/>
<path d="M217.558 161.999C216.378 162.118 215.154 162.14 213.887 162.066C212.634 162.004 211.449 161.875 210.33 161.679C209.225 161.481 208.318 161.251 207.608 160.987L207.509 155.188C208.476 155.613 209.476 155.962 210.508 156.234C211.552 156.491 212.582 156.669 213.597 156.768C214.625 156.866 215.597 156.869 216.512 156.778C217.428 156.686 218.212 156.493 218.866 156.2C219.52 155.907 220.011 155.516 220.337 155.028C220.662 154.526 220.788 153.91 220.714 153.181C220.64 152.438 220.333 151.852 219.795 151.424C219.268 150.981 218.535 150.625 217.597 150.357C216.658 150.076 215.547 149.819 214.264 149.586C212.489 149.255 210.957 148.819 209.67 148.278C208.382 147.723 207.36 146.955 206.605 145.972C205.862 144.974 205.407 143.646 205.241 141.988C205.075 140.33 205.293 138.834 205.897 137.5C206.499 136.154 207.5 135.048 208.901 134.184C210.302 133.32 212.13 132.775 214.385 132.549C215.274 132.46 216.169 132.431 217.07 132.461C217.969 132.478 218.846 132.537 219.701 132.639C220.569 132.74 221.373 132.874 222.113 133.041C222.853 133.208 223.502 133.397 224.059 133.61L224.14 139.43C223.238 138.985 222.311 138.629 221.36 138.362C220.409 138.096 219.486 137.914 218.592 137.816C217.697 137.718 216.892 137.705 216.176 137.777C215.366 137.858 214.641 138.038 213.999 138.316C213.37 138.594 212.885 138.971 212.544 139.447C212.203 139.923 212.066 140.493 212.133 141.157C212.198 141.807 212.432 142.339 212.835 142.754C213.251 143.155 213.854 143.49 214.645 143.759C215.447 144.014 216.47 144.259 217.713 144.497C220.05 144.946 221.912 145.476 223.3 146.087C224.687 146.685 225.704 147.475 226.351 148.455C227.012 149.434 227.421 150.706 227.578 152.272C227.752 154.01 227.526 155.567 226.901 156.942C226.273 158.305 225.193 159.425 223.659 160.302C222.126 161.18 220.092 161.745 217.558 161.999Z" fill="#F6F3EA"/>
<path d="M231.71 161.157C231.891 159.634 232.068 158.158 232.238 156.728C232.409 155.298 232.6 153.696 232.812 151.922L233.958 142.311C234.176 140.484 234.373 138.835 234.548 137.366C234.724 135.896 234.904 134.387 235.089 132.838L241.761 133.634C241.577 135.183 241.397 136.692 241.221 138.162C241.046 139.631 240.849 141.28 240.631 143.107L239.484 152.719C239.273 154.493 239.081 156.095 238.911 157.524C238.74 158.954 238.564 160.431 238.382 161.953L231.71 161.157Z" fill="#F6F3EA"/>
<path d="M254.671 166.915C252.358 166.098 250.422 165.032 248.864 163.718C247.311 162.392 246.132 160.886 245.327 159.202C244.534 157.522 244.111 155.718 244.057 153.79C244.015 151.866 244.352 149.892 245.067 147.868C246.035 145.127 247.45 142.905 249.31 141.201C251.188 139.488 253.385 138.412 255.902 137.972C258.424 137.52 261.155 137.813 264.097 138.852C265.04 139.185 265.936 139.572 266.784 140.013C267.649 140.446 268.448 140.906 269.182 141.391C269.92 141.864 270.59 142.348 271.193 142.844C271.8 143.327 272.321 143.794 272.756 144.244L270.252 149.829C269.409 148.853 268.558 148.001 267.698 147.273C266.851 146.549 266.003 145.946 265.156 145.462C264.325 144.971 263.514 144.585 262.722 144.306C261.565 143.897 260.424 143.706 259.298 143.732C258.188 143.75 257.132 143.999 256.128 144.479C255.124 144.959 254.221 145.672 253.42 146.619C252.636 147.558 251.993 148.738 251.491 150.159C251.06 151.378 250.823 152.589 250.781 153.79C250.751 154.995 250.941 156.137 251.352 157.216C251.768 158.282 252.434 159.238 253.351 160.085C254.28 160.937 255.48 161.622 256.951 162.142C257.731 162.417 258.486 162.642 259.216 162.815C259.947 162.988 260.668 163.109 261.38 163.176C262.091 163.244 262.803 163.269 263.516 163.252C264.246 163.227 264.994 163.152 265.76 163.027L264.543 168.812C264.053 168.837 263.438 168.817 262.697 168.753C261.973 168.682 261.165 168.566 260.274 168.407C259.396 168.252 258.478 168.048 257.521 167.795C256.564 167.541 255.614 167.248 254.671 166.915ZM258.676 166.866C259.173 165.458 259.609 164.226 259.982 163.17C260.355 162.114 260.73 161.052 261.108 159.983C261.543 158.751 261.929 157.657 262.267 156.702C262.604 155.746 262.949 154.772 263.299 153.779L269.127 155.838C268.776 156.831 268.431 157.805 268.094 158.761C267.756 159.716 267.37 160.81 266.935 162.042C266.557 163.11 266.182 164.173 265.809 165.229C265.44 166.272 265.018 167.467 264.543 168.812L258.676 166.866Z" fill="#F6F3EA"/>
<path d="M266.319 171.02C267.173 169.746 268.001 168.511 268.804 167.316C269.606 166.12 270.504 164.78 271.5 163.296L276.892 155.257C277.917 153.729 278.842 152.35 279.666 151.121C280.49 149.892 281.337 148.63 282.206 147.334L286.973 150.532C286.996 152.891 287.017 155.121 287.037 157.221C287.065 159.311 287.089 161.406 287.108 163.506L287.219 171.672L287.617 171.939L292.007 165.395C293.032 163.867 293.956 162.488 294.781 161.259C295.605 160.03 296.452 158.768 297.321 157.472L302.453 160.915C301.584 162.21 300.738 163.473 299.913 164.702C299.089 165.931 298.164 167.31 297.139 168.838L291.747 176.877C290.752 178.361 289.853 179.7 289.051 180.896C288.249 182.092 287.421 183.327 286.566 184.6L281.849 181.436C281.833 179.498 281.809 177.476 281.778 175.368C281.747 173.26 281.711 170.956 281.67 168.456L281.554 160.19L281.172 159.934L276.616 166.727C275.62 168.211 274.722 169.551 273.919 170.747C273.117 171.943 272.289 173.177 271.435 174.451L266.319 171.02Z" fill="#F6F3EA"/>
<path d="M165.744 294.528C166.463 293.174 167.16 291.861 167.835 290.589C168.51 289.317 169.267 287.892 170.104 286.314L174.642 277.763C175.505 276.138 176.283 274.672 176.977 273.365C177.671 272.057 178.384 270.715 179.115 269.337L195.597 278.085L193.028 282.925C191.945 282.35 190.779 281.731 189.53 281.069C188.294 280.413 186.833 279.637 185.149 278.743L179.885 275.949L184.316 273.275C183.585 274.652 182.872 275.995 182.178 277.302C181.484 278.61 180.706 280.076 179.843 281.701L175.793 289.333C174.955 290.911 174.199 292.336 173.524 293.608C172.848 294.88 172.152 296.193 171.433 297.547L165.744 294.528ZM175.283 286.753L177.758 282.089L182.245 284.47C183.788 285.289 185.113 285.993 186.22 286.58C187.339 287.174 188.417 287.746 189.453 288.296L186.978 292.96C185.882 292.379 184.781 291.794 183.674 291.206C182.567 290.619 181.26 289.925 179.752 289.125L175.283 286.753Z" fill="#F6F3EA"/>
<path d="M191.374 306.568C191.825 305.103 192.264 303.683 192.688 302.307C193.112 300.931 193.588 299.389 194.114 297.682L196.967 288.431C197.509 286.673 197.999 285.087 198.435 283.673C198.871 282.258 199.319 280.806 199.779 279.315L206.2 281.296C205.741 282.786 205.293 284.239 204.856 285.653C204.42 287.067 203.931 288.654 203.389 290.412L200.536 299.662C200.009 301.369 199.534 302.911 199.109 304.287C198.685 305.663 198.247 307.084 197.795 308.549L191.374 306.568Z" fill="#F6F3EA"/>
<path d="M209.042 311.695C209.122 310.164 209.2 308.679 209.275 307.241C209.35 305.803 209.435 304.192 209.528 302.408L210.034 292.741C210.13 290.904 210.217 289.246 210.294 287.768C210.372 286.29 210.451 284.772 210.533 283.214C211.398 283.26 212.417 283.313 213.588 283.374C214.773 283.436 216.038 283.502 217.383 283.573C218.728 283.643 220.086 283.714 221.458 283.786C223.774 283.907 225.718 284.269 227.289 284.872C228.873 285.463 230.047 286.379 230.81 287.62C231.586 288.862 231.92 290.516 231.812 292.579C231.726 294.217 231.323 295.671 230.602 296.942C229.895 298.214 228.809 299.191 227.345 299.876C225.88 300.56 223.996 300.842 221.693 300.722L224.355 298.458L227.93 304.373C228.484 305.283 229.073 306.262 229.699 307.309C230.326 308.343 230.934 309.356 231.523 310.349C232.126 311.328 232.655 312.197 233.109 312.955L225.659 312.565C224.999 311.409 224.362 310.301 223.75 309.241C223.138 308.181 222.545 307.148 221.97 306.143L217.737 298.632L221.475 301.812L214.865 301.466L215.11 296.772L219.864 297.021C220.929 297.077 221.828 296.997 222.56 296.781C223.306 296.554 223.882 296.136 224.288 295.53C224.693 294.924 224.925 294.075 224.982 292.983C225.024 292.171 224.939 291.512 224.725 291.007C224.511 290.488 224.206 290.078 223.808 289.777C223.423 289.477 222.98 289.267 222.479 289.147C221.991 289.028 221.494 288.955 220.988 288.929L212.04 288.46L216.929 284.591C216.845 286.202 216.764 287.746 216.687 289.224C216.61 290.689 216.525 292.32 216.431 294.117L215.979 302.746C215.886 304.53 215.801 306.141 215.726 307.579C215.651 309.017 215.573 310.502 215.493 312.033L209.042 311.695Z" fill="#F6F3EA"/>
<path d="M253.957 309.159C252.813 309.475 251.61 309.702 250.349 309.843C249.104 309.992 247.913 310.064 246.778 310.059C245.655 310.051 244.722 309.976 243.978 309.836L242.904 304.136C243.929 304.393 244.974 304.568 246.037 304.662C247.109 304.74 248.154 304.742 249.172 304.669C250.202 304.593 251.16 304.432 252.047 304.188C252.934 303.943 253.675 303.622 254.27 303.222C254.866 302.823 255.283 302.355 255.522 301.819C255.758 301.27 255.779 300.642 255.584 299.935C255.385 299.215 254.985 298.69 254.382 298.358C253.788 298.01 253.006 297.783 252.036 297.677C251.063 297.558 249.924 297.491 248.62 297.477C246.815 297.45 245.232 297.277 243.872 296.961C242.509 296.631 241.372 296.045 240.463 295.203C239.562 294.345 238.891 293.113 238.448 291.506C238.005 289.899 237.968 288.388 238.339 286.972C238.706 285.543 239.507 284.285 240.742 283.197C241.978 282.11 243.688 281.265 245.873 280.663C246.734 280.425 247.611 280.246 248.505 280.124C249.394 279.99 250.269 279.901 251.128 279.857C252 279.81 252.815 279.807 253.573 279.847C254.331 279.887 255.003 279.965 255.588 280.08L256.647 285.804C255.682 285.517 254.709 285.322 253.726 285.22C252.744 285.117 251.804 285.093 250.906 285.147C250.008 285.201 249.212 285.323 248.517 285.514C247.733 285.731 247.048 286.03 246.462 286.413C245.889 286.792 245.475 287.245 245.219 287.772C244.963 288.299 244.924 288.884 245.101 289.527C245.275 290.157 245.595 290.642 246.063 290.984C246.539 291.308 247.19 291.537 248.015 291.669C248.849 291.785 249.899 291.855 251.164 291.88C253.543 291.93 255.468 292.139 256.939 292.508C258.406 292.864 259.542 293.471 260.345 294.328C261.161 295.182 261.778 296.367 262.197 297.884C262.661 299.568 262.7 301.141 262.315 302.602C261.926 304.051 261.049 305.337 259.685 306.46C258.321 307.583 256.412 308.482 253.957 309.159Z" fill="#F6F3EA"/>
<path d="M279.967 298.329C279.226 296.986 278.507 295.685 277.811 294.425C277.115 293.164 276.334 291.752 275.47 290.188L271.293 282.625C270.403 281.015 269.6 279.562 268.885 278.266C268.169 276.971 267.434 275.64 266.68 274.275L271.123 277.19L267.814 279.017C266.496 279.746 265.328 280.391 264.313 280.952C263.298 281.512 262.329 282.048 261.407 282.557L258.631 277.533L279.447 266.034L282.222 271.058C281.312 271.561 280.349 272.093 279.334 272.654C278.318 273.215 277.145 273.863 275.815 274.598L272.506 276.426L272.422 271.103C273.176 272.468 273.911 273.799 274.627 275.094C275.342 276.39 276.145 277.843 277.035 279.453L281.213 287.016C282.076 288.58 282.857 289.992 283.553 291.253C284.249 292.513 284.968 293.814 285.71 295.157L279.967 298.329Z" fill="#F6F3EA"/>
<path d="M31.0304 238.867C31.4423 237.046 31.8297 235.296 32.1926 233.618C32.5556 231.941 32.9842 230 33.4786 227.795L36.0264 216.171C36.521 213.934 36.958 211.937 37.3375 210.179C37.733 208.422 38.1369 206.593 38.5493 204.691L61.7808 204.843L60.0235 213.015C58.6155 213.006 57.1036 212.996 55.4876 212.986C53.8876 212.975 51.9997 212.963 49.8237 212.949L42.4799 212.901L47.8508 206.336C47.4388 208.173 47.035 209.987 46.6393 211.776C46.2597 213.55 45.8226 215.563 45.3279 217.816L43.1262 227.882C42.6641 230.055 42.2434 231.996 41.8642 233.705C41.4852 235.399 41.1058 237.141 40.7262 238.93L31.0304 238.867ZM41.0008 226.26L42.6837 218.447L48.6596 218.485C50.6916 218.499 52.4355 218.51 53.8915 218.52C55.3475 218.529 56.7554 218.538 58.1154 218.547L56.4324 226.36C54.9925 226.351 53.5445 226.341 52.0885 226.332C50.6486 226.323 48.9366 226.311 46.9526 226.299L41.0008 226.26Z" fill="#F6F3EA"/>
<path d="M59.4997 243.566C60.0144 241.309 60.4986 239.132 60.9523 237.035C61.4061 234.918 61.942 232.481 62.56 229.725L65.7448 215.196C66.3833 212.36 66.9396 209.853 67.4138 207.677C67.8881 205.48 68.383 203.203 68.8984 200.846L81.3481 200.927C80.8326 203.304 80.3277 205.591 79.8333 207.787C79.359 209.984 78.8127 212.481 78.1945 215.277L75.4428 227.799C74.8451 230.515 74.3093 232.932 73.8355 235.049C73.3817 237.166 72.8974 239.363 72.3825 241.64L70.1293 232.925L78.7991 232.981C80.7391 232.994 82.449 233.005 83.929 233.015C85.409 233.024 86.7789 233.033 88.0389 233.041C89.3189 233.05 90.6189 233.058 91.9388 233.067L89.5891 243.762L59.4997 243.566Z" fill="#F6F3EA"/>
<path d="M91.707 250.321C92.3501 247.388 92.9666 244.557 93.5563 241.831C94.1723 239.079 94.882 235.912 95.6853 232.329L99.8255 213.441C100.629 209.78 101.34 206.521 101.956 203.665C102.599 200.809 103.255 197.85 103.925 194.786L142.144 195.035L139.37 207.848C137.082 207.833 134.638 207.817 132.038 207.8C129.438 207.783 126.37 207.763 122.834 207.74L110.159 207.658L119.04 197.458C118.37 200.47 117.727 203.404 117.111 206.26C116.494 209.116 115.784 212.362 114.98 215.996L111.965 229.861C111.214 233.366 110.53 236.508 109.914 239.286C109.324 242.038 108.708 244.881 108.065 247.815L104.699 237.575L117.413 237.658C120.351 237.677 123.133 237.695 125.759 237.712C128.385 237.729 130.907 237.746 133.325 237.761L130.472 250.574L91.707 250.321ZM108.582 228.318L111.115 216.673L120.981 216.738C124.283 216.759 127.117 216.778 129.483 216.793C131.849 216.808 134.137 216.823 136.347 216.838L133.853 228.483C131.487 228.467 129.121 228.452 126.755 228.436C124.415 228.421 121.633 228.403 118.41 228.382L108.582 228.318Z" fill="#F6F3EA"/>
<path d="M129.536 257.588C131.877 254.271 134.234 250.922 136.608 247.54C139.015 244.158 141.521 240.613 144.126 236.906L156.738 219.054L155.629 223.751L151.069 209.217C150.045 205.878 149.005 202.474 147.95 199.005C146.895 195.535 145.727 191.803 144.446 187.809L166.201 187.951C166.806 190.471 167.378 192.941 167.917 195.362C168.457 197.782 168.981 200.105 169.489 202.33L171.346 210.623L172.718 210.632L177.771 202.237C179.092 200.057 180.478 197.779 181.931 195.404C183.384 192.996 184.854 190.556 186.34 188.083L210.154 188.238C207.351 192.14 204.681 195.863 202.143 199.407C199.637 202.951 197.296 206.235 195.12 209.259L183.103 226.135L184.165 221.046L189.358 236.319C190.64 240.117 191.874 243.767 193.059 247.271C194.278 250.741 195.512 254.326 196.762 258.026L174.125 257.878C173.585 255.523 173.06 253.282 172.552 251.155C172.076 248.996 171.599 246.935 171.122 244.972L168.833 235.254L167.412 235.245L161.469 244.958C160.214 247.007 158.959 249.074 157.704 251.156C156.45 253.206 155.112 255.402 153.692 257.745L129.536 257.588Z" fill="#F6F3EA"/>
<path d="M198.071 268.515C199.169 263.701 200.202 259.057 201.17 254.583C202.138 250.067 203.281 244.869 204.599 238.989L211.394 207.993C212.756 201.943 213.943 196.596 214.954 191.952C215.966 187.265 217.022 182.407 218.121 177.38L245.065 177.555C243.965 182.54 242.888 187.398 241.834 192.127C240.821 196.856 239.656 202.203 238.337 208.168L231.543 239.165C230.267 245.044 229.124 250.242 228.113 254.759C227.145 259.232 226.134 263.877 225.078 268.691L198.071 268.515Z" fill="#F6F3EA"/>
<path d="M235.146 258.341C235.986 254.655 236.777 251.1 237.518 247.675C238.26 244.217 239.135 240.253 240.144 235.784L245.346 212.004C246.356 207.372 247.249 203.261 248.023 199.673C248.831 196.085 249.655 192.382 250.497 188.566L268.136 188.681C269.905 192.939 271.578 196.984 273.153 200.817C274.762 204.649 276.306 208.384 277.785 212.019L283.864 226.563L285.285 226.572L288.416 212.236C289.426 207.669 290.318 203.591 291.093 200.003C291.901 196.415 292.725 192.696 293.567 188.847L312.481 188.97C311.639 192.819 310.814 196.538 310.007 200.126C309.232 203.714 308.34 207.792 307.33 212.359L302.128 236.09C301.119 240.625 300.243 244.604 299.502 248.03C298.761 251.455 297.97 255.027 297.129 258.745L279.98 258.634C278.436 254.965 276.843 251.263 275.201 247.528C273.592 243.761 271.855 239.699 269.988 235.342L263.665 220.698L262.342 220.69L259.009 235.809C258 240.344 257.124 244.323 256.383 247.749C255.642 251.141 254.868 254.713 254.059 258.465L235.146 258.341Z" fill="#F6F3EA"/>
<path d="M303.447 251.747C304.09 248.813 304.707 245.983 305.296 243.257C305.912 240.505 306.622 237.338 307.425 233.755L311.566 214.866C312.369 211.206 313.08 207.947 313.696 205.091C314.339 202.235 314.995 199.275 315.665 196.212L353.884 196.461L351.11 209.274C348.822 209.259 346.378 209.243 343.778 209.226C341.178 209.209 338.11 209.189 334.574 209.166L321.899 209.084L330.78 198.884C330.111 201.896 329.467 204.83 328.851 207.686C328.234 210.542 327.524 213.787 326.72 217.422L323.705 231.287C322.954 234.792 322.27 237.934 321.654 240.712C321.064 243.464 320.448 246.307 319.805 249.241L316.439 239.001L329.153 239.084C332.091 239.103 334.873 239.121 337.499 239.138C340.125 239.155 342.647 239.172 345.065 239.187L342.212 252L303.447 251.747ZM320.322 229.744L322.855 218.099L332.722 218.163C336.023 218.185 338.857 218.203 341.223 218.219C343.589 218.234 345.877 218.249 348.087 218.264L345.593 229.909C343.227 229.893 340.861 229.878 338.495 229.862C336.155 229.847 333.374 229.829 330.15 229.808L320.322 229.744Z" fill="#F6F3EA"/>
<path d="M364.984 246.525C362.804 246.511 360.635 246.326 358.477 245.972C356.319 245.618 354.362 245.156 352.606 244.584C350.85 243.993 349.494 243.364 348.538 242.697L351.515 232.397C352.77 233.285 354.115 234.064 355.55 234.733C357.006 235.383 358.493 235.892 360.01 236.262C361.528 236.612 363.037 236.792 364.537 236.802C365.597 236.809 366.498 236.714 367.239 236.519C367.98 236.324 368.582 236.008 369.045 235.571C369.508 235.114 369.832 234.496 370.017 233.717C370.182 232.918 370.017 232.197 369.521 231.554C369.046 230.891 368.28 230.266 367.224 229.679C366.167 229.072 364.881 228.454 363.366 227.824C361.032 226.869 359.079 225.756 357.507 224.486C355.935 223.215 354.845 221.678 354.237 219.874C353.649 218.05 353.634 215.82 354.191 213.184C354.727 210.687 355.641 208.613 356.931 206.961C358.242 205.29 360.02 204.042 362.266 203.216C364.511 202.371 367.314 201.959 370.674 201.981C372.174 201.991 373.693 202.111 375.232 202.341C376.771 202.551 378.259 202.84 379.696 203.21C381.154 203.579 382.491 204.008 383.708 204.496C384.925 204.964 385.952 205.461 386.788 205.986L383.664 215.926C382.529 215.038 381.234 214.3 379.778 213.711C378.342 213.121 376.945 212.682 375.586 212.393C374.228 212.084 373.119 211.927 372.259 211.921C371.399 211.916 370.589 212.001 369.828 212.176C369.087 212.331 368.455 212.617 367.932 213.033C367.429 213.45 367.096 214.018 366.931 214.737C366.786 215.476 366.872 216.166 367.187 216.809C367.523 217.451 368.139 218.085 369.035 218.711C369.931 219.316 371.157 219.944 372.713 220.595C375.705 221.834 378.016 223.129 379.648 224.48C381.279 225.831 382.329 227.347 382.798 229.031C383.267 230.694 383.265 232.624 382.79 234.821C382.192 237.617 381.197 239.88 379.806 241.611C378.435 243.322 376.537 244.58 374.111 245.384C371.706 246.169 368.664 246.549 364.984 246.525Z" fill="#F6F3EA"/>
<path d="M400.258 242.087C398.514 242.076 396.779 241.928 395.052 241.645C393.326 241.362 391.761 240.992 390.355 240.535C388.951 240.061 387.866 239.558 387.101 239.025L389.483 230.785C390.486 231.495 391.562 232.118 392.711 232.654C393.876 233.173 395.065 233.581 396.279 233.877C397.493 234.157 398.7 234.301 399.9 234.309C400.748 234.314 401.469 234.239 402.062 234.083C402.655 233.927 403.136 233.674 403.507 233.324C403.877 232.959 404.136 232.464 404.284 231.841C404.417 231.202 404.284 230.625 403.888 230.111C403.507 229.58 402.894 229.08 402.049 228.611C401.205 228.125 400.176 227.63 398.963 227.126C397.096 226.362 395.534 225.472 394.276 224.456C393.019 223.44 392.147 222.21 391.66 220.767C391.19 219.308 391.177 217.523 391.623 215.414C392.052 213.417 392.783 211.758 393.816 210.436C394.864 209.099 396.287 208.101 398.083 207.44C399.88 206.764 402.122 206.435 404.81 206.452C406.01 206.46 407.225 206.556 408.456 206.74C409.687 206.908 410.878 207.14 412.028 207.435C413.194 207.731 414.264 208.074 415.237 208.464C416.211 208.838 417.032 209.236 417.701 209.656L415.201 217.608C414.294 216.898 413.258 216.307 412.093 215.836C410.944 215.364 409.826 215.013 408.74 214.782C407.653 214.535 406.766 214.409 406.078 214.405C405.39 214.4 404.742 214.468 404.133 214.608C403.54 214.732 403.034 214.961 402.616 215.294C402.214 215.627 401.947 216.082 401.815 216.657C401.7 217.248 401.768 217.8 402.021 218.314C402.289 218.828 402.782 219.335 403.499 219.836C404.216 220.32 405.196 220.823 406.441 221.343C408.835 222.335 410.684 223.371 411.989 224.451C413.294 225.532 414.134 226.745 414.509 228.092C414.884 229.422 414.882 230.966 414.503 232.724C414.024 234.961 413.228 236.772 412.115 238.156C411.018 239.525 409.5 240.531 407.56 241.175C405.636 241.802 403.202 242.106 400.258 242.087Z" fill="#F6F3EA"/>
</svg>
