<svg width="100%" height="100%" viewBox="0 0 414 220" fill="none" xmlns="http://www.w3.org/2000/svg">
<path d="M411 133.086V86.9141C411 82.7535 408.424 79.0276 404.531 77.5584L210.531 4.3329C208.255 3.47388 205.745 3.47388 203.469 4.3329L9.46866 77.5584C5.57613 79.0276 3 82.7535 3 86.9141V133.086C3 137.246 5.57613 140.972 9.46866 142.442L203.469 215.667C205.745 216.526 208.255 216.526 210.531 215.667L404.531 142.442C408.424 140.972 411 137.246 411 133.086Z" fill="#F6F3EA" stroke="#F9423A" stroke-width="6" stroke-linejoin="round"/>
<path d="M147.641 69.9904C146.84 68.6827 146.064 67.4148 145.312 66.1867C144.56 64.9586 143.718 63.5827 142.785 62.0589L137.73 53.8033C136.77 52.2341 135.903 50.8184 135.13 49.5561C134.357 48.2939 133.564 46.9976 132.749 45.6672C133.704 45.0823 134.705 44.4697 135.751 43.8292C136.809 43.1817 137.894 42.5168 139.009 41.8345C140.135 41.1453 141.272 40.449 142.42 39.7459C144.274 38.611 146.086 37.8688 147.858 37.519C149.629 37.1693 151.326 37.209 152.949 37.638C154.583 38.0602 156.121 38.8616 157.563 40.0424C158.999 41.2117 160.304 42.7573 161.481 44.6791C162.532 46.3961 163.281 48.1422 163.727 49.9173C164.177 51.674 164.237 53.4194 163.907 55.1535C163.589 56.8805 162.797 58.5615 161.531 60.1964C160.265 61.8314 158.444 63.3764 156.067 64.8314C154.975 65.4998 153.952 66.1264 152.997 66.7112C152.042 67.296 151.126 67.8565 150.251 68.3926C149.375 68.9287 148.505 69.4613 147.641 69.9904ZM150.506 62.0686L153.303 60.3559C155.055 59.2837 156.233 58.0932 156.839 56.7844C157.456 55.4685 157.63 54.0801 157.361 52.619C157.091 51.1579 156.501 49.6825 155.589 48.1928C154.899 47.0671 154.136 46.1272 153.3 45.3732C152.474 44.6123 151.581 44.0726 150.62 43.7542C149.663 43.4175 148.651 43.334 147.582 43.5036C146.506 43.6619 145.377 44.1031 144.195 44.8271L141.107 46.7173C141.574 47.4792 142.047 48.2525 142.528 49.0371C143.001 49.8103 143.541 50.6916 144.146 51.6809L147.572 57.2756C148.149 58.2194 148.672 59.0723 149.138 59.8341C149.605 60.596 150.061 61.3408 150.506 62.0686Z" fill="#F9423A"/>
<path d="M170.351 56.439C169.836 54.9949 169.336 53.5947 168.852 52.2385C168.368 50.8823 167.826 49.3628 167.225 47.6801L163.972 38.5633C163.353 36.8304 162.795 35.267 162.298 33.8731C161.8 32.4792 161.289 31.0476 160.765 29.5784L178.603 23.2121L180.411 28.2791C179.256 28.6914 178.013 29.1351 176.682 29.6102C175.363 30.0807 173.806 30.6365 172.01 31.2774L165.681 33.5362L167.18 28.3932C167.704 29.8625 168.215 31.294 168.713 32.6879C169.21 34.0818 169.768 35.6452 170.387 37.3781L172.941 44.5359C173.537 46.2061 174.08 47.7256 174.568 49.0943C175.052 50.4505 175.552 51.8507 176.067 53.2948L172.047 50.1216L178.432 47.8427C179.926 47.3093 181.339 46.8051 182.67 46.3301C184.014 45.8505 185.307 45.3889 186.551 44.9452L188.359 50.0122L170.351 56.439ZM171.011 43.5897L169.33 38.8807L174.246 37.1261C175.904 36.5345 177.323 36.028 178.503 35.6068C179.684 35.1855 180.82 34.7799 181.913 34.39L183.593 39.099C182.438 39.5114 181.27 39.9282 180.09 40.3495C178.909 40.7707 177.522 41.266 175.927 41.8351L171.011 43.5897Z" fill="#F9423A"/>
<path d="M199.558 48.9994C198.378 49.1178 197.154 49.1399 195.887 49.0659C194.634 49.0039 193.449 48.8748 192.33 48.6787C191.225 48.4812 190.318 48.2506 189.608 47.9867L189.509 42.1877C190.476 42.6133 191.476 42.962 192.508 43.2338C193.552 43.4909 194.582 43.6691 195.597 43.7684C196.625 43.8664 197.597 43.8694 198.512 43.7777C199.428 43.6859 200.212 43.4934 200.866 43.2C201.52 42.9067 202.011 42.5159 202.337 42.0275C202.662 41.526 202.788 40.9103 202.715 40.1807C202.64 39.4377 202.333 38.852 201.795 38.4236C201.268 37.9806 200.535 37.6252 199.597 37.3575C198.658 37.0764 197.547 36.8193 196.264 36.5861C194.489 36.2548 192.958 35.8187 191.67 35.2777C190.382 34.7234 189.36 33.9548 188.605 32.9719C187.862 31.9743 187.407 30.6464 187.241 28.988C187.075 27.3297 187.293 25.8338 187.897 24.5003C188.499 23.1535 189.5 22.0481 190.901 21.1841C192.302 20.3201 194.13 19.7751 196.385 19.549C197.274 19.4599 198.169 19.4305 199.07 19.4608C199.969 19.4779 200.846 19.5374 201.701 19.6394C202.569 19.74 203.373 19.8738 204.113 20.0408C204.853 20.2078 205.502 20.3974 206.059 20.6095L206.14 26.4305C205.238 25.9849 204.311 25.6289 203.36 25.3624C202.409 25.096 201.486 24.9138 200.592 24.8158C199.697 24.7178 198.892 24.7047 198.176 24.7765C197.366 24.8577 196.641 25.0376 195.999 25.3163C195.37 25.5938 194.885 25.9707 194.544 26.447C194.203 26.9234 194.066 27.4933 194.133 28.1566C194.198 28.8067 194.432 29.3393 194.835 29.7545C195.251 30.1551 195.854 30.4899 196.645 30.7591C197.447 31.0136 198.47 31.2595 199.714 31.4967C202.05 31.9459 203.912 32.4762 205.3 33.0875C206.687 33.6855 207.704 34.4746 208.351 35.4549C209.012 36.4339 209.421 37.7061 209.578 39.2716C209.752 41.0096 209.526 42.5665 208.901 43.9425C208.273 45.3052 207.193 46.4252 205.659 47.3025C204.126 48.1798 202.092 48.7454 199.558 48.9994Z" fill="#F9423A"/>
<path d="M213.71 48.1569C213.891 46.6344 214.068 45.1582 214.238 43.7283C214.409 42.2985 214.6 40.6965 214.812 38.9224L215.959 29.3106C216.177 27.4836 216.373 25.8352 216.549 24.3657C216.724 22.8961 216.904 21.3868 217.089 19.8378L223.761 20.634C223.577 22.183 223.397 23.6923 223.221 25.1618C223.046 26.6314 222.849 28.2797 222.631 30.1068L221.484 39.7186C221.273 41.4927 221.081 43.0946 220.911 44.5245C220.74 45.9544 220.564 47.4306 220.382 48.9531L213.71 48.1569Z" fill="#F9423A"/>
<path d="M236.671 53.915C234.358 53.0978 232.422 52.0322 230.864 50.7182C229.311 49.3916 228.132 47.8862 227.327 46.2018C226.534 44.522 226.111 42.718 226.057 40.7898C226.015 38.8661 226.352 36.8922 227.067 34.8681C228.035 32.1275 229.45 29.905 231.31 28.2008C233.188 26.4885 235.385 25.4123 237.902 24.9722C240.424 24.5196 243.155 24.8129 246.097 25.8522C247.04 26.1853 247.936 26.5724 248.784 27.0135C249.649 27.4464 250.448 27.9056 251.182 28.391C251.92 28.8638 252.59 29.3481 253.193 29.8438C253.8 30.3269 254.321 30.7938 254.756 31.2443L252.252 36.8294C251.409 35.8529 250.558 35.0006 249.698 34.2726C248.851 33.549 248.003 32.9456 247.156 32.4624C246.325 31.971 245.514 31.5854 244.722 31.3056C243.566 30.897 242.424 30.7059 241.298 30.7321C240.188 30.7503 239.132 30.9992 238.128 31.4789C237.124 31.9586 236.221 32.6721 235.42 33.6192C234.636 34.5583 233.993 35.7381 233.491 37.1588C233.06 38.3782 232.824 39.5885 232.781 40.7896C232.751 41.9952 232.942 43.1372 233.352 44.2156C233.768 45.2815 234.434 46.238 235.351 47.0851C236.28 47.9367 237.48 48.6223 238.951 49.1419C239.731 49.4173 240.486 49.6416 241.216 49.8149C241.947 49.9882 242.668 50.1086 243.38 50.1761C244.091 50.2436 244.803 50.269 245.516 50.2522C246.246 50.2273 246.994 50.1521 247.76 50.0266L246.543 55.8117C246.053 55.8367 245.438 55.8173 244.697 55.7535C243.973 55.6815 243.165 55.5659 242.274 55.4066C241.396 55.2518 240.478 55.0477 239.521 54.7945C238.564 54.5413 237.614 54.2481 236.671 53.915ZM240.676 53.8663C241.173 52.4582 241.609 51.2262 241.982 50.1702C242.355 49.1141 242.73 48.0518 243.108 46.9832C243.543 45.7511 243.929 44.6574 244.267 43.7019C244.604 42.7465 244.949 41.7721 245.299 40.779L251.127 42.8376C250.776 43.8307 250.431 44.8051 250.094 45.7605C249.756 46.716 249.37 47.8097 248.935 49.0418C248.557 50.1104 248.182 51.1727 247.809 52.2287C247.44 53.2722 247.018 54.4665 246.543 55.8117L240.676 53.8663Z" fill="#F9423A"/>
<path d="M248.319 58.0195C249.173 56.7461 250.002 55.5115 250.804 54.3156C251.606 53.1197 252.505 51.7798 253.5 50.296L258.892 42.2569C259.917 40.7289 260.842 39.3503 261.666 38.1211C262.49 36.892 263.337 35.6297 264.206 34.3341L268.973 37.5316C268.996 39.891 269.017 42.1209 269.037 44.2215C269.065 46.3109 269.089 48.4059 269.108 50.5064L269.219 58.672L269.617 58.9393L274.007 52.3951C275.032 50.867 275.956 49.4884 276.781 48.2593C277.605 47.0302 278.452 45.7679 279.321 44.4723L284.453 47.9149C283.584 49.2104 282.738 50.4727 281.913 51.7019C281.089 52.931 280.164 54.3096 279.139 55.8377L273.747 63.8767C272.752 65.3605 271.853 66.7004 271.051 67.8963C270.249 69.0922 269.421 70.3268 268.566 71.6002L263.849 68.4362C263.833 66.4984 263.809 64.4755 263.778 62.3676C263.747 60.2596 263.711 57.9557 263.67 55.4557L263.554 47.1903L263.172 46.9341L258.616 53.7274C257.62 55.2112 256.722 56.5511 255.919 57.7469C255.117 58.9428 254.289 60.1775 253.435 61.4509L248.319 58.0195Z" fill="#F9423A"/>
<path d="M147.744 181.528C148.463 180.174 149.16 178.861 149.835 177.589C150.51 176.317 151.267 174.892 152.104 173.314L156.643 164.763C157.505 163.138 158.283 161.672 158.977 160.365C159.671 159.057 160.384 157.715 161.115 156.337L177.597 165.085L175.028 169.925C173.945 169.35 172.779 168.731 171.53 168.069C170.294 167.413 168.833 166.637 167.149 165.743L161.885 162.949L166.316 160.275C165.585 161.652 164.872 162.995 164.178 164.302C163.484 165.61 162.706 167.076 161.843 168.701L157.793 176.333C156.955 177.911 156.199 179.336 155.524 180.608C154.849 181.88 154.152 183.193 153.433 184.547L147.744 181.528ZM157.283 173.753L159.758 169.089L164.245 171.47C165.788 172.289 167.113 172.993 168.22 173.58C169.339 174.174 170.417 174.746 171.453 175.296L168.978 179.96C167.882 179.379 166.781 178.794 165.674 178.206C164.567 177.619 163.26 176.925 161.752 176.125L157.283 173.753Z" fill="#F9423A"/>
<path d="M173.374 193.568C173.825 192.103 174.264 190.683 174.688 189.307C175.112 187.931 175.588 186.389 176.114 184.682L178.967 175.431C179.509 173.673 179.999 172.087 180.435 170.673C180.871 169.258 181.319 167.806 181.779 166.315L188.2 168.296C187.741 169.786 187.293 171.239 186.856 172.653C186.42 174.067 185.931 175.654 185.389 177.412L182.536 186.662C182.009 188.369 181.534 189.911 181.11 191.287C180.685 192.663 180.247 194.084 179.795 195.549L173.374 193.568Z" fill="#F9423A"/>
<path d="M191.042 198.695C191.122 197.164 191.2 195.679 191.275 194.241C191.35 192.803 191.435 191.192 191.528 189.408L192.034 179.741C192.13 177.904 192.217 176.246 192.294 174.768C192.372 173.29 192.451 171.772 192.533 170.214C193.398 170.26 194.417 170.313 195.588 170.374C196.773 170.436 198.038 170.502 199.383 170.573C200.728 170.643 202.086 170.714 203.458 170.786C205.775 170.907 207.718 171.269 209.289 171.872C210.874 172.463 212.047 173.379 212.81 174.62C213.586 175.862 213.92 177.516 213.812 179.579C213.726 181.217 213.323 182.671 212.603 183.942C211.895 185.214 210.809 186.191 209.345 186.876C207.88 187.56 205.996 187.842 203.693 187.722L206.355 185.458L209.93 191.373C210.484 192.283 211.073 193.262 211.699 194.309C212.326 195.343 212.934 196.356 213.523 197.349C214.126 198.328 214.655 199.197 215.109 199.955L207.659 199.565C206.999 198.409 206.362 197.301 205.75 196.241C205.138 195.181 204.545 194.148 203.97 193.143L199.737 185.632L203.475 188.812L196.865 188.466L197.11 183.772L201.864 184.021C202.929 184.077 203.828 183.997 204.56 183.781C205.306 183.554 205.882 183.136 206.288 182.53C206.693 181.924 206.925 181.075 206.982 179.983C207.024 179.171 206.939 178.512 206.725 178.007C206.512 177.488 206.206 177.078 205.808 176.777C205.423 176.477 204.98 176.267 204.479 176.147C203.991 176.028 203.494 175.955 202.988 175.929L194.04 175.46L198.929 171.591C198.845 173.202 198.764 174.746 198.687 176.224C198.61 177.689 198.525 179.32 198.431 181.117L197.979 189.746C197.886 191.53 197.801 193.141 197.726 194.579C197.651 196.017 197.573 197.502 197.493 199.033L191.042 198.695Z" fill="#F9423A"/>
<path d="M235.957 196.159C234.813 196.475 233.61 196.702 232.349 196.843C231.104 196.992 229.913 197.064 228.778 197.059C227.655 197.051 226.722 196.976 225.978 196.836L224.904 191.136C225.929 191.393 226.974 191.568 228.037 191.662C229.109 191.74 230.154 191.742 231.172 191.669C232.202 191.593 233.16 191.432 234.047 191.188C234.934 190.943 235.675 190.622 236.27 190.222C236.866 189.823 237.283 189.355 237.522 188.819C237.758 188.27 237.779 187.642 237.584 186.935C237.386 186.215 236.985 185.69 236.382 185.358C235.788 185.01 235.006 184.783 234.036 184.677C233.063 184.558 231.924 184.491 230.62 184.477C228.815 184.45 227.232 184.277 225.872 183.961C224.509 183.631 223.373 183.045 222.463 182.203C221.562 181.345 220.891 180.113 220.448 178.506C220.005 176.899 219.968 175.388 220.339 173.972C220.706 172.543 221.507 171.285 222.742 170.197C223.978 169.11 225.688 168.265 227.873 167.663C228.734 167.425 229.611 167.246 230.505 167.124C231.394 166.99 232.269 166.901 233.128 166.857C234 166.81 234.815 166.807 235.573 166.847C236.331 166.887 237.003 166.965 237.588 167.08L238.647 172.804C237.683 172.517 236.709 172.322 235.726 172.22C234.744 172.117 233.804 172.093 232.906 172.147C232.008 172.201 231.212 172.323 230.518 172.514C229.733 172.731 229.048 173.03 228.462 173.413C227.889 173.792 227.475 174.245 227.219 174.772C226.963 175.299 226.924 175.884 227.101 176.527C227.275 177.157 227.595 177.642 228.063 177.984C228.539 178.308 229.19 178.537 230.015 178.669C230.849 178.785 231.899 178.855 233.164 178.88C235.543 178.93 237.468 179.139 238.939 179.508C240.406 179.864 241.542 180.471 242.345 181.328C243.161 182.182 243.779 183.367 244.197 184.884C244.661 186.568 244.7 188.141 244.315 189.602C243.926 191.051 243.049 192.337 241.685 193.46C240.321 194.583 238.412 195.482 235.957 196.159Z" fill="#F9423A"/>
<path d="M261.967 185.329C261.226 183.986 260.507 182.685 259.811 181.425C259.115 180.164 258.334 178.752 257.47 177.188L253.293 169.625C252.403 168.015 251.6 166.562 250.885 165.266C250.169 163.971 249.434 162.64 248.68 161.275L253.123 164.19L249.814 166.017C248.496 166.746 247.328 167.391 246.313 167.952C245.298 168.512 244.329 169.048 243.407 169.557L240.632 164.533L261.447 153.034L264.222 158.058C263.312 158.561 262.349 159.093 261.334 159.654C260.318 160.215 259.145 160.863 257.815 161.598L254.506 163.426L254.422 158.103C255.176 159.468 255.911 160.799 256.627 162.094C257.342 163.39 258.145 164.843 259.035 166.453L263.213 174.016C264.077 175.58 264.857 176.992 265.553 178.253C266.249 179.513 266.968 180.814 267.71 182.157L261.967 185.329Z" fill="#F9423A"/>
<path d="M13.0304 125.867C13.4423 124.046 13.8297 122.296 14.1926 120.618C14.5556 118.941 14.9842 117 15.4786 114.795L18.0264 103.171C18.521 100.934 18.9581 98.9371 19.3375 97.1795C19.733 95.422 20.1369 93.5926 20.5493 91.6913L43.7808 91.8427L42.0235 100.015C40.6155 100.006 39.1036 99.9964 37.4876 99.9859C35.8876 99.9754 33.9997 99.9631 31.8237 99.9489L24.4799 99.9011L29.8508 93.3359C29.4388 95.1733 29.035 96.9867 28.6393 98.7762C28.2597 100.55 27.8226 102.563 27.3279 104.816L25.1262 114.882C24.6641 117.055 24.2434 118.996 23.8643 120.705C23.4852 122.399 23.1059 124.141 22.7262 125.93L13.0304 125.867ZM23.0008 113.26L24.6837 105.447L30.6596 105.485C32.6916 105.499 34.4355 105.51 35.8915 105.52C37.3475 105.529 38.7554 105.538 40.1154 105.547L38.4325 113.36C36.9925 113.351 35.5445 113.341 34.0885 113.332C32.6486 113.323 30.9366 113.311 28.9527 113.299L23.0008 113.26Z" fill="#F9423A"/>
<path d="M41.4997 130.566C42.0144 128.309 42.4986 126.132 42.9523 124.035C43.4061 121.918 43.942 119.481 44.56 116.725L47.7448 102.196C48.3833 99.3599 48.9396 96.8535 49.4138 94.6765C49.8882 92.4796 50.383 90.2027 50.8984 87.846L63.3481 87.9272C62.8326 90.3039 62.3277 92.5906 61.8334 94.7875C61.359 96.9844 60.8127 99.4809 60.1945 102.277L57.4428 114.799C56.8451 117.515 56.3093 119.932 55.8355 122.049C55.3817 124.166 54.8974 126.363 54.3825 128.64L52.1293 119.925L60.7991 119.981C62.7391 119.994 64.449 120.005 65.929 120.015C67.409 120.024 68.779 120.033 70.0389 120.041C71.3189 120.05 72.6189 120.058 73.9388 120.067L71.5891 130.762L41.4997 130.566Z" fill="#F9423A"/>
<path d="M73.707 137.321C74.3501 134.388 74.9666 131.557 75.5564 128.831C76.1723 126.079 76.882 122.912 77.6853 119.329L81.8256 100.441C82.6294 96.7797 83.3397 93.5213 83.9563 90.6652C84.5989 87.8093 85.2553 84.8496 85.9252 81.7859L124.144 82.035L121.37 94.8482C119.082 94.8333 116.638 94.8173 114.038 94.8004C111.438 94.7834 108.37 94.7634 104.834 94.7404L92.1595 94.6578L101.04 84.4584C100.37 87.4701 99.7274 90.404 99.1107 93.2601C98.4941 96.1161 97.7839 99.3615 96.9802 102.996L93.9648 116.861C93.2139 120.366 92.5304 123.508 91.9143 126.286C91.3243 129.038 90.7078 131.881 90.0647 134.815L86.6993 124.575L99.4131 124.658C102.351 124.677 105.133 124.695 107.759 124.712C110.385 124.729 112.907 124.746 115.325 124.761L112.472 137.574L73.707 137.321ZM90.5818 115.318L93.1147 103.673L102.982 103.738C106.283 103.759 109.117 103.778 111.483 103.793C113.849 103.808 116.137 103.823 118.347 103.838L115.853 115.483C113.487 115.467 111.121 115.452 108.755 115.436C106.415 115.421 103.633 115.403 100.41 115.382L90.5818 115.318Z" fill="#F9423A"/>
<path d="M111.536 144.588C113.877 141.271 116.234 137.922 118.608 134.54C121.015 131.158 123.521 127.613 126.126 123.906L138.738 106.054L137.629 110.751L133.069 96.2171C132.045 92.8783 131.005 89.4741 129.95 86.0045C128.895 82.5349 127.727 78.8032 126.446 74.8094L148.202 74.9512C148.806 77.4706 149.378 79.9407 149.917 82.3616C150.457 84.7825 150.981 87.1053 151.489 89.33L153.346 97.6233L154.718 97.6322L159.771 89.237C161.092 87.0569 162.478 84.7792 163.931 82.4039C165.384 79.996 166.854 77.5556 168.34 75.0825L192.154 75.2377C189.351 79.1396 186.681 82.8626 184.143 86.4068C181.637 89.9512 179.296 93.2353 177.12 96.2592L165.103 113.135L166.165 108.046L171.358 123.319C172.64 127.117 173.874 130.767 175.059 134.271C176.278 137.741 177.512 141.326 178.762 145.026L156.125 144.878C155.585 142.523 155.06 140.282 154.552 138.155C154.076 135.996 153.599 133.935 153.122 131.972L150.833 122.254L149.412 122.245L143.469 131.958C142.214 134.007 140.959 136.074 139.704 138.156C138.45 140.206 137.112 142.402 135.692 144.745L111.536 144.588Z" fill="#F9423A"/>
<path d="M180.071 155.515C181.169 150.701 182.202 146.057 183.17 141.583C184.138 137.067 185.281 131.869 186.599 125.989L193.394 94.9927C194.756 88.9427 195.943 83.5957 196.954 78.9515C197.966 74.2647 199.022 69.4075 200.121 64.3799L227.065 64.5555C225.966 69.5404 224.889 74.3975 223.834 79.1267C222.821 83.8562 221.656 89.2034 220.337 95.1683L213.543 126.165C212.267 132.044 211.124 137.242 210.113 141.759C209.145 146.232 208.134 150.877 207.078 155.691L180.071 155.515Z" fill="#F9423A"/>
<path d="M217.146 145.341C217.986 141.655 218.777 138.1 219.518 134.675C220.26 131.217 221.135 127.253 222.144 122.784L227.346 99.0038C228.356 94.3716 229.249 90.2614 230.023 86.673C230.831 83.0849 231.655 79.3825 232.497 75.5659L250.136 75.6809C251.905 79.9392 253.578 83.9845 255.153 87.8168C256.762 91.6494 258.306 95.3836 259.785 99.0193L265.864 113.563L267.285 113.572L270.416 99.2356C271.426 94.6687 272.318 90.5911 273.093 87.0028C273.901 83.4146 274.725 79.6959 275.567 75.8466L294.481 75.9699C293.639 79.8192 292.814 83.5379 292.007 87.1261C291.232 90.7144 290.34 94.792 289.33 99.3589L284.128 123.09C283.119 127.625 282.243 131.604 281.502 135.03C280.761 138.455 279.97 142.027 279.129 145.745L261.98 145.634C260.436 141.965 258.843 138.263 257.201 134.528C255.592 130.761 253.855 126.699 251.988 122.342L245.665 107.698L244.342 107.69L241.009 122.809C240 127.344 239.124 131.323 238.383 134.749C237.642 138.141 236.868 141.713 236.059 145.465L217.146 145.341Z" fill="#F9423A"/>
<path d="M285.447 138.747C286.09 135.813 286.707 132.983 287.296 130.257C287.912 127.505 288.622 124.338 289.425 120.755L293.566 101.866C294.369 98.2056 295.08 94.9471 295.696 92.0911C296.339 89.2352 296.995 86.2754 297.665 83.2117L335.884 83.4608L333.11 96.274C330.822 96.2591 328.378 96.2432 325.778 96.2262C323.178 96.2093 320.11 96.1893 316.574 96.1663L303.899 96.0836L312.78 85.8843C312.111 88.896 311.467 91.8299 310.851 94.6859C310.234 97.542 309.524 100.787 308.72 104.422L305.705 118.287C304.954 121.792 304.27 124.934 303.654 127.712C303.064 130.464 302.448 133.307 301.805 136.241L298.439 126.001L311.153 126.084C314.091 126.103 316.873 126.121 319.499 126.138C322.125 126.155 324.647 126.172 327.065 126.187L324.212 139L285.447 138.747ZM302.322 116.744L304.855 105.099L314.722 105.163C318.023 105.185 320.857 105.203 323.223 105.219C325.589 105.234 327.877 105.249 330.087 105.264L327.593 116.909C325.227 116.893 322.861 116.878 320.495 116.862C318.155 116.847 315.374 116.829 312.15 116.808L302.322 116.744Z" fill="#F9423A"/>
<path d="M346.984 133.525C344.804 133.511 342.635 133.326 340.477 132.972C338.319 132.618 336.362 132.156 334.606 131.584C332.85 130.993 331.494 130.364 330.538 129.697L333.516 119.397C334.77 120.285 336.115 121.064 337.55 121.733C339.006 122.383 340.493 122.892 342.011 123.262C343.528 123.612 345.037 123.792 346.537 123.802C347.597 123.809 348.498 123.714 349.239 123.519C349.98 123.324 350.582 123.008 351.045 122.571C351.508 122.114 351.832 121.496 352.017 120.717C352.183 119.918 352.017 119.197 351.521 118.554C351.046 117.891 350.28 117.266 349.224 116.679C348.167 116.072 346.882 115.454 345.366 114.824C343.032 113.869 341.079 112.756 339.507 111.486C337.935 110.215 336.845 108.678 336.237 106.874C335.649 105.05 335.634 102.82 336.191 100.184C336.727 97.6872 337.641 95.6131 338.931 93.9614C340.242 92.29 342.021 91.0415 344.266 90.2161C346.512 89.3708 349.314 88.959 352.674 88.9809C354.174 88.9907 355.693 89.1106 357.232 89.3406C358.771 89.5507 360.259 89.8404 361.696 90.2098C363.154 90.5793 364.491 91.008 365.708 91.4959C366.925 91.9639 367.952 92.4606 368.788 92.986L365.664 102.926C364.529 102.038 363.234 101.3 361.778 100.711C360.342 100.121 358.945 99.682 357.586 99.3932C356.228 99.0843 355.119 98.9271 354.259 98.9215C353.399 98.9159 352.589 99.0006 351.828 99.1756C351.087 99.3308 350.455 99.6167 349.932 100.033C349.429 100.45 349.096 101.018 348.931 101.737C348.786 102.476 348.872 103.166 349.187 103.809C349.523 104.451 350.139 105.085 351.035 105.711C351.931 106.316 353.157 106.944 354.713 107.595C357.705 108.834 360.016 110.129 361.648 111.48C363.279 112.831 364.329 114.347 364.798 116.031C365.267 117.694 365.265 119.624 364.79 121.821C364.192 124.617 363.197 126.88 361.806 128.611C360.435 130.322 358.537 131.58 356.111 132.384C353.706 133.169 350.664 133.549 346.984 133.525Z" fill="#F9423A"/>
<path d="M382.258 129.087C380.514 129.076 378.779 128.928 377.052 128.645C375.326 128.362 373.761 127.992 372.355 127.535C370.951 127.061 369.866 126.558 369.101 126.025L371.483 117.785C372.486 118.495 373.562 119.118 374.711 119.654C375.876 120.173 377.065 120.581 378.279 120.877C379.493 121.157 380.7 121.301 381.9 121.309C382.748 121.314 383.469 121.239 384.062 121.083C384.655 120.927 385.136 120.674 385.507 120.324C385.877 119.959 386.136 119.464 386.284 118.841C386.417 118.202 386.284 117.625 385.888 117.111C385.507 116.58 384.894 116.08 384.049 115.611C383.205 115.125 382.176 114.63 380.963 114.126C379.096 113.362 377.534 112.472 376.276 111.456C375.019 110.44 374.147 109.21 373.66 107.767C373.19 106.308 373.177 104.523 373.623 102.414C374.052 100.417 374.783 98.7578 375.816 97.4365C376.864 96.0993 378.287 95.1006 380.083 94.4402C381.88 93.7639 384.122 93.4346 386.81 93.4521C388.01 93.4599 389.225 93.5558 390.456 93.7398C391.687 93.9079 392.878 94.1396 394.028 94.4351C395.194 94.7307 396.264 95.0737 397.237 95.4641C398.211 95.8384 399.032 96.2358 399.701 96.6562L397.201 104.608C396.294 103.898 395.258 103.307 394.093 102.836C392.944 102.364 391.826 102.013 390.74 101.782C389.653 101.535 388.766 101.409 388.078 101.405C387.39 101.4 386.742 101.468 386.133 101.608C385.54 101.732 385.034 101.961 384.616 102.294C384.214 102.627 383.947 103.082 383.815 103.657C383.7 104.248 383.768 104.8 384.021 105.314C384.289 105.828 384.782 106.335 385.499 106.836C386.216 107.32 387.196 107.823 388.441 108.343C390.835 109.335 392.684 110.371 393.989 111.451C395.294 112.532 396.134 113.745 396.509 115.092C396.884 116.422 396.882 117.966 396.503 119.724C396.024 121.961 395.228 123.772 394.115 125.156C393.018 126.525 391.5 127.531 389.56 128.175C387.636 128.802 385.202 129.106 382.258 129.087Z" fill="#F9423A"/>
</svg>
