<?xml version="1.0" encoding="utf-8"?>
<!-- Generator: Adobe Illustrator 23.0.2, SVG Export Plug-In . SVG Version: 6.00 Build 0)  -->
<svg version="1.1" id="Calque_1" xmlns="http://www.w3.org/2000/svg" xmlns:xlink="http://www.w3.org/1999/xlink" x="0px" y="0px"
	 viewBox="0 0 660 660" style="enable-background:new 0 0 660 660;" xml:space="preserve">
<style type="text/css">
	.st0{fill-rule:evenodd;clip-rule:evenodd;fill:url(#SVGID_1_);}
	.st1{filter:url(#Adobe_OpacityMaskFilter);}
	.st2{fill-rule:evenodd;clip-rule:evenodd;fill:#FFFFFF;}
	.st3{mask:url(#SVGID_2_);fill-rule:evenodd;clip-rule:evenodd;fill:#009DCC;}
	.st4{fill-rule:evenodd;clip-rule:evenodd;fill:url(#SVGID_3_);}
	.st5{filter:url(#Adobe_OpacityMaskFilter_1_);}
	.st6{mask:url(#SVGID_4_);fill-rule:evenodd;clip-rule:evenodd;fill:#009DCC;}
	.st7{fill-rule:evenodd;clip-rule:evenodd;fill:url(#SVGID_5_);}
	.st8{filter:url(#Adobe_OpacityMaskFilter_2_);}
	.st9{mask:url(#SVGID_6_);fill-rule:evenodd;clip-rule:evenodd;fill:#009DCC;}
	.st10{fill-rule:evenodd;clip-rule:evenodd;fill:url(#SVGID_7_);}
	.st11{filter:url(#Adobe_OpacityMaskFilter_3_);}
	.st12{mask:url(#SVGID_8_);fill-rule:evenodd;clip-rule:evenodd;fill:#009DCC;}
	.st13{fill-rule:evenodd;clip-rule:evenodd;fill:url(#SVGID_9_);}
	.st14{filter:url(#Adobe_OpacityMaskFilter_4_);}
	.st15{mask:url(#SVGID_10_);fill-rule:evenodd;clip-rule:evenodd;fill:#009DCC;}
	.st16{fill-rule:evenodd;clip-rule:evenodd;fill:url(#SVGID_11_);}
	.st17{filter:url(#Adobe_OpacityMaskFilter_5_);}
	.st18{mask:url(#SVGID_12_);fill-rule:evenodd;clip-rule:evenodd;fill:#009DCC;}
	.st19{fill-rule:evenodd;clip-rule:evenodd;fill:url(#SVGID_13_);}
	.st20{filter:url(#Adobe_OpacityMaskFilter_6_);}
	.st21{mask:url(#SVGID_14_);fill-rule:evenodd;clip-rule:evenodd;fill:#009DCC;}
	.st22{fill-rule:evenodd;clip-rule:evenodd;fill:url(#SVGID_15_);}
	.st23{filter:url(#Adobe_OpacityMaskFilter_7_);}
	.st24{mask:url(#SVGID_16_);fill-rule:evenodd;clip-rule:evenodd;fill:#009DCC;}
	.st25{fill-rule:evenodd;clip-rule:evenodd;fill:url(#SVGID_17_);}
	.st26{filter:url(#Adobe_OpacityMaskFilter_8_);}
	.st27{mask:url(#SVGID_18_);fill-rule:evenodd;clip-rule:evenodd;fill:#009DCC;}
	.st28{fill-rule:evenodd;clip-rule:evenodd;fill:url(#SVGID_19_);}
	.st29{filter:url(#Adobe_OpacityMaskFilter_9_);}
	.st30{mask:url(#SVGID_20_);fill-rule:evenodd;clip-rule:evenodd;fill:#009DCC;}
	.st31{fill-rule:evenodd;clip-rule:evenodd;fill:#009DCC;}
</style>
<g>
	<g transform="translate(29 54)">
		<g>
			
				<linearGradient id="SVGID_1_" gradientUnits="userSpaceOnUse" x1="11.9883" y1="499.5564" x2="17.8519" y2="499.5564" gradientTransform="matrix(26 0 0 -3 -46 1999.6693)">
				<stop  offset="0" style="stop-color:#000000;stop-opacity:0"/>
				<stop  offset="1" style="stop-color:#FFFFFF"/>
			</linearGradient>
			<path class="st0" d="M276,486h230c8.3,0,15,6.7,15,15l0,0c0,8.3-6.7,15-15,15H276c-8.3,0-15-6.7-15-15l0,0
				C261,492.7,267.7,486,276,486z"/>
		</g>
		<defs>
			<filter id="Adobe_OpacityMaskFilter" filterUnits="userSpaceOnUse" x="151" y="486" width="360" height="30">
				<feColorMatrix  type="matrix" values="1 0 0 0 0  0 1 0 0 0  0 0 1 0 0  0 0 0 1 0"/>
			</filter>
		</defs>
		<mask maskUnits="userSpaceOnUse" x="151" y="486" width="360" height="30" id="SVGID_2_">
			<g class="st1">
				<path class="st2" d="M276,486h230c8.3,0,15,6.7,15,15l0,0c0,8.3-6.7,15-15,15H276c-8.3,0-15-6.7-15-15l0,0
					C261,492.7,267.7,486,276,486z"/>
			</g>
		</mask>
		<path class="st3" d="M166,486h330c8.3,0,15,6.7,15,15l0,0c0,8.3-6.7,15-15,15H166c-8.3,0-15-6.7-15-15l0,0
			C151,492.7,157.7,486,166,486z"/>
	</g>
	<g transform="translate(30 49)">
		<g>
			
				<linearGradient id="SVGID_3_" gradientUnits="userSpaceOnUse" x1="9.3927" y1="519.5565" x2="17.1552" y2="519.5565" gradientTransform="matrix(33 0 0 -3 -34 2014.6693)">
				<stop  offset="0" style="stop-color:#000000;stop-opacity:0"/>
				<stop  offset="1" style="stop-color:#FFFFFF"/>
			</linearGradient>
			<path class="st4" d="M285,441h300c8.3,0,15,6.7,15,15l0,0c0,8.3-6.7,15-15,15H285c-8.3,0-15-6.7-15-15l0,0
				C270,447.7,276.7,441,285,441z"/>
		</g>
		<defs>
			<filter id="Adobe_OpacityMaskFilter_1_" filterUnits="userSpaceOnUse" x="160" y="441" width="430" height="30">
				<feColorMatrix  type="matrix" values="1 0 0 0 0  0 1 0 0 0  0 0 1 0 0  0 0 0 1 0"/>
			</filter>
		</defs>
		<mask maskUnits="userSpaceOnUse" x="160" y="441" width="430" height="30" id="SVGID_4_">
			<g class="st5">
				<path class="st2" d="M285,441h300c8.3,0,15,6.7,15,15l0,0c0,8.3-6.7,15-15,15H285c-8.3,0-15-6.7-15-15l0,0
					C270,447.7,276.7,441,285,441z"/>
			</g>
		</mask>
		<path class="st6" d="M175,441h400c8.3,0,15,6.7,15,15l0,0c0,8.3-6.7,15-15,15H175c-8.3,0-15-6.7-15-15l0,0
			C160,447.7,166.7,441,175,441z"/>
	</g>
	<g transform="translate(24 44)">
		<g>
			
				<linearGradient id="SVGID_5_" gradientUnits="userSpaceOnUse" x1="13.4377" y1="539.5565" x2="19.3013" y2="539.5565" gradientTransform="matrix(35 0 0 -3 -248 2029.6693)">
				<stop  offset="0" style="stop-color:#000000;stop-opacity:0"/>
				<stop  offset="1" style="stop-color:#FFFFFF"/>
			</linearGradient>
			<path class="st7" d="M231,396h320c8.3,0,15,6.7,15,15l0,0c0,8.3-6.7,15-15,15H231c-8.3,0-15-6.7-15-15l0,0
				C216,402.7,222.7,396,231,396z"/>
		</g>
		<defs>
			<filter id="Adobe_OpacityMaskFilter_2_" filterUnits="userSpaceOnUse" x="196" y="396" width="360" height="30">
				<feColorMatrix  type="matrix" values="1 0 0 0 0  0 1 0 0 0  0 0 1 0 0  0 0 0 1 0"/>
			</filter>
		</defs>
		<mask maskUnits="userSpaceOnUse" x="196" y="396" width="360" height="30" id="SVGID_6_">
			<g class="st8">
				<path class="st2" d="M231,396h320c8.3,0,15,6.7,15,15l0,0c0,8.3-6.7,15-15,15H231c-8.3,0-15-6.7-15-15l0,0
					C216,402.7,222.7,396,231,396z"/>
			</g>
		</mask>
		<path class="st9" d="M211,396h330c8.3,0,15,6.7,15,15l0,0c0,8.3-6.7,15-15,15H211c-8.3,0-15-6.7-15-15l0,0
			C196,402.7,202.7,396,211,396z"/>
	</g>
	<g transform="translate(31 39)">
		<g>
			
				<linearGradient id="SVGID_7_" gradientUnits="userSpaceOnUse" x1="10.6806" y1="559.5565" x2="16.5442" y2="559.5565" gradientTransform="matrix(26 0 0 -3 6 2044.6693)">
				<stop  offset="0" style="stop-color:#000000;stop-opacity:0"/>
				<stop  offset="1" style="stop-color:#FFFFFF"/>
			</linearGradient>
			<path class="st10" d="M294,351h230c8.3,0,15,6.7,15,15l0,0c0,8.3-6.7,15-15,15H294c-8.3,0-15-6.7-15-15l0,0
				C279,357.7,285.7,351,294,351z"/>
		</g>
		<defs>
			<filter id="Adobe_OpacityMaskFilter_3_" filterUnits="userSpaceOnUse" x="169" y="351" width="360" height="30">
				<feColorMatrix  type="matrix" values="1 0 0 0 0  0 1 0 0 0  0 0 1 0 0  0 0 0 1 0"/>
			</filter>
		</defs>
		<mask maskUnits="userSpaceOnUse" x="169" y="351" width="360" height="30" id="SVGID_8_">
			<g class="st11">
				<path class="st2" d="M294,351h230c8.3,0,15,6.7,15,15l0,0c0,8.3-6.7,15-15,15H294c-8.3,0-15-6.7-15-15l0,0
					C279,357.7,285.7,351,294,351z"/>
			</g>
		</mask>
		<path class="st12" d="M184,351h330c8.3,0,15,6.7,15,15l0,0c0,8.3-6.7,15-15,15H184c-8.3,0-15-6.7-15-15l0,0
			C169,357.7,175.7,351,184,351z"/>
	</g>
	<g transform="translate(43 34)">
		<g>
			
				<linearGradient id="SVGID_9_" gradientUnits="userSpaceOnUse" x1="12.8473" y1="579.5565" x2="18.7109" y2="579.5565" gradientTransform="matrix(15 0 0 -3 197 2059.6692)">
				<stop  offset="0" style="stop-color:#000000;stop-opacity:0"/>
				<stop  offset="1" style="stop-color:#FFFFFF"/>
			</linearGradient>
			<path class="st13" d="M402,306h120c8.3,0,15,6.7,15,15l0,0c0,8.3-6.7,15-15,15H402c-8.3,0-15-6.7-15-15l0,0
				C387,312.7,393.7,306,402,306z"/>
		</g>
		<defs>
			<filter id="Adobe_OpacityMaskFilter_4_" filterUnits="userSpaceOnUse" x="167" y="306" width="360" height="30">
				<feColorMatrix  type="matrix" values="1 0 0 0 0  0 1 0 0 0  0 0 1 0 0  0 0 0 1 0"/>
			</filter>
		</defs>
		<mask maskUnits="userSpaceOnUse" x="167" y="306" width="360" height="30" id="SVGID_10_">
			<g class="st14">
				<path class="st2" d="M402,306h120c8.3,0,15,6.7,15,15l0,0c0,8.3-6.7,15-15,15H402c-8.3,0-15-6.7-15-15l0,0
					C387,312.7,393.7,306,402,306z"/>
			</g>
		</mask>
		<path class="st15" d="M182,306h330c8.3,0,15,6.7,15,15l0,0c0,8.3-6.7,15-15,15H182c-8.3,0-15-6.7-15-15l0,0
			C167,312.7,173.7,306,182,306z"/>
	</g>
	<g transform="translate(48 29)">
		<g>
			
				<linearGradient id="SVGID_11_" gradientUnits="userSpaceOnUse" x1="14.9498" y1="599.5565" x2="20.8134" y2="599.5565" gradientTransform="matrix(13 0 0 -3 240 2074.6692)">
				<stop  offset="0" style="stop-color:#000000;stop-opacity:0"/>
				<stop  offset="1" style="stop-color:#FFFFFF"/>
			</linearGradient>
			<path class="st16" d="M447,261h100c8.3,0,15,6.7,15,15l0,0c0,8.3-6.7,15-15,15H447c-8.3,0-15-6.7-15-15l0,0
				C432,267.7,438.7,261,447,261z"/>
		</g>
		<defs>
			<filter id="Adobe_OpacityMaskFilter_5_" filterUnits="userSpaceOnUse" x="192" y="261" width="360" height="30">
				<feColorMatrix  type="matrix" values="1 0 0 0 0  0 1 0 0 0  0 0 1 0 0  0 0 0 1 0"/>
			</filter>
		</defs>
		<mask maskUnits="userSpaceOnUse" x="192" y="261" width="360" height="30" id="SVGID_12_">
			<g class="st17">
				<path class="st2" d="M447,261h100c8.3,0,15,6.7,15,15l0,0c0,8.3-6.7,15-15,15H447c-8.3,0-15-6.7-15-15l0,0
					C432,267.7,438.7,261,447,261z"/>
			</g>
		</mask>
		<path class="st18" d="M207,261h330c8.3,0,15,6.7,15,15l0,0c0,8.3-6.7,15-15,15H207c-8.3,0-15-6.7-15-15l0,0
			C192,267.7,198.7,261,207,261z"/>
	</g>
	<g transform="translate(46 24)">
		<g>
			
				<linearGradient id="SVGID_13_" gradientUnits="userSpaceOnUse" x1="8.6512" y1="619.5565" x2="14.5148" y2="619.5565" gradientTransform="matrix(17 0 0 -3 270 2089.6692)">
				<stop  offset="0" style="stop-color:#000000;stop-opacity:0"/>
				<stop  offset="1" style="stop-color:#FFFFFF"/>
			</linearGradient>
			<path class="st19" d="M429,216h140c8.3,0,15,6.7,15,15l0,0c0,8.3-6.7,15-15,15H429c-8.3,0-15-6.7-15-15l0,0
				C414,222.7,420.7,216,429,216z"/>
		</g>
		<defs>
			<filter id="Adobe_OpacityMaskFilter_6_" filterUnits="userSpaceOnUse" x="214" y="216" width="360" height="30">
				<feColorMatrix  type="matrix" values="1 0 0 0 0  0 1 0 0 0  0 0 1 0 0  0 0 0 1 0"/>
			</filter>
		</defs>
		<mask maskUnits="userSpaceOnUse" x="214" y="216" width="360" height="30" id="SVGID_14_">
			<g class="st20">
				<path class="st2" d="M429,216h140c8.3,0,15,6.7,15,15l0,0c0,8.3-6.7,15-15,15H429c-8.3,0-15-6.7-15-15l0,0
					C414,222.7,420.7,216,429,216z"/>
			</g>
		</mask>
		<path class="st21" d="M229,216h330c8.3,0,15,6.7,15,15l0,0c0,8.3-6.7,15-15,15H229c-8.3,0-15-6.7-15-15l0,0
			C214,222.7,220.7,216,229,216z"/>
	</g>
	<g transform="translate(38 19)">
		<g>
			
				<linearGradient id="SVGID_15_" gradientUnits="userSpaceOnUse" x1="7.0973" y1="639.5565" x2="12.9609" y2="639.5565" gradientTransform="matrix(24 0 0 -3 176 2104.6692)">
				<stop  offset="0" style="stop-color:#000000;stop-opacity:0"/>
				<stop  offset="1" style="stop-color:#FFFFFF"/>
			</linearGradient>
			<path class="st22" d="M357,171h210c8.3,0,15,6.7,15,15l0,0c0,8.3-6.7,15-15,15H357c-8.3,0-15-6.7-15-15l0,0
				C342,177.7,348.7,171,357,171z"/>
		</g>
		<defs>
			<filter id="Adobe_OpacityMaskFilter_7_" filterUnits="userSpaceOnUse" x="212" y="171" width="360" height="30">
				<feColorMatrix  type="matrix" values="1 0 0 0 0  0 1 0 0 0  0 0 1 0 0  0 0 0 1 0"/>
			</filter>
		</defs>
		<mask maskUnits="userSpaceOnUse" x="212" y="171" width="360" height="30" id="SVGID_16_">
			<g class="st23">
				<path class="st2" d="M357,171h210c8.3,0,15,6.7,15,15l0,0c0,8.3-6.7,15-15,15H357c-8.3,0-15-6.7-15-15l0,0
					C342,177.7,348.7,171,357,171z"/>
			</g>
		</mask>
		<path class="st24" d="M227,171h330c8.3,0,15,6.7,15,15l0,0c0,8.3-6.7,15-15,15H227c-8.3,0-15-6.7-15-15l0,0
			C212,177.7,218.7,171,227,171z"/>
	</g>
	<g transform="translate(31 14)">
		<g>
			
				<linearGradient id="SVGID_17_" gradientUnits="userSpaceOnUse" x1="12.9425" y1="659.5565" x2="18.8061" y2="659.5565" gradientTransform="matrix(21 0 0 -3 11 2119.6692)">
				<stop  offset="0" style="stop-color:#000000;stop-opacity:0"/>
				<stop  offset="1" style="stop-color:#FFFFFF"/>
			</linearGradient>
			<path class="st25" d="M294,126h180c8.3,0,15,6.7,15,15l0,0c0,8.3-6.7,15-15,15H294c-8.3,0-15-6.7-15-15l0,0
				C279,132.7,285.7,126,294,126z"/>
		</g>
		<defs>
			<filter id="Adobe_OpacityMaskFilter_8_" filterUnits="userSpaceOnUse" x="119" y="126" width="360" height="30">
				<feColorMatrix  type="matrix" values="1 0 0 0 0  0 1 0 0 0  0 0 1 0 0  0 0 0 1 0"/>
			</filter>
		</defs>
		<mask maskUnits="userSpaceOnUse" x="119" y="126" width="360" height="30" id="SVGID_18_">
			<g class="st26">
				<path class="st2" d="M294,126h180c8.3,0,15,6.7,15,15l0,0c0,8.3-6.7,15-15,15H294c-8.3,0-15-6.7-15-15l0,0
					C279,132.7,285.7,126,294,126z"/>
			</g>
		</mask>
		<path class="st27" d="M134,126h330c8.3,0,15,6.7,15,15l0,0c0,8.3-6.7,15-15,15H134c-8.3,0-15-6.7-15-15l0,0
			C119,132.7,125.7,126,134,126z"/>
	</g>
	<g transform="translate(35 9)">
		<g>
			
				<linearGradient id="SVGID_19_" gradientUnits="userSpaceOnUse" x1="22.9079" y1="679.5565" x2="28.7715" y2="679.5565" gradientTransform="matrix(11 0 0 -3 65 2134.6692)">
				<stop  offset="0" style="stop-color:#000000;stop-opacity:0"/>
				<stop  offset="1" style="stop-color:#FFFFFF"/>
			</linearGradient>
			<path class="st28" d="M330,81h80c8.3,0,15,6.7,15,15l0,0c0,8.3-6.7,15-15,15h-80c-8.3,0-15-6.7-15-15l0,0
				C315,87.7,321.7,81,330,81z"/>
		</g>
		<defs>
			<filter id="Adobe_OpacityMaskFilter_9_" filterUnits="userSpaceOnUse" x="55" y="81" width="360" height="30">
				<feColorMatrix  type="matrix" values="1 0 0 0 0  0 1 0 0 0  0 0 1 0 0  0 0 0 1 0"/>
			</filter>
		</defs>
		<mask maskUnits="userSpaceOnUse" x="55" y="81" width="360" height="30" id="SVGID_20_">
			<g class="st29">
				<path class="st2" d="M330,81h80c8.3,0,15,6.7,15,15l0,0c0,8.3-6.7,15-15,15h-80c-8.3,0-15-6.7-15-15l0,0
					C315,87.7,321.7,81,330,81z"/>
			</g>
		</mask>
		<path class="st30" d="M70,81h330c8.3,0,15,6.7,15,15l0,0c0,8.3-6.7,15-15,15H70c-8.3,0-15-6.7-15-15l0,0C55,87.7,61.7,81,70,81z"
			/>
	</g>
	<path class="st31" d="M496.2,253.1c1.2,0.1,2.3,0.8,3,1.7c0.7,1,1,2.2,0.7,3.4l-2.2,18.7c-0.3,2.7-2.4,4.8-5.1,5.1h-34.1l-5.9,39.1
		c-0.4,2.6-2.6,4.6-5.3,4.8h-20.7c-1.2,0-2.3-0.6-3-1.5c-0.7-0.9-1-2.2-0.7-3.3l5.4-39.1h-34.1c-1.2-0.1-2.3-0.7-3.1-1.7
		c-0.7-1-1-2.2-0.8-3.4l2.8-18.7c0.3-2.7,2.4-4.8,5.1-5.1h34.1l5.7-39.3c0.3-2.7,2.6-4.7,5.3-4.8h20.7c1.2,0.1,2.3,0.6,3,1.5
		c0.7,0.9,1,2.1,0.7,3.3l-5.5,39.3H496.2z M194.2,334.4c1.5,0,2.9,0.6,3.8,1.7c1,1.1,1.4,2.6,1.1,4l-3,20.8
		c-0.3,3.5-3.2,6.1-6.6,6.3h-23.8l-5.7,42.6c-0.6,3.4-3.4,5.9-6.8,6.3h-29c-1.5-0.1-2.9-0.9-3.9-2.1c-1-1.2-1.4-2.7-1.2-4.2
		l6.1-42.1H34.9c-1.5,0-3-0.8-3.9-2c-0.9-1.2-1.2-2.8-0.8-4.3l3.7-27.5l127.1-145.8c1.2-1.5,3.1-2.3,5-2.1h19.5c1.5,0,3,0.8,3.9,2
		c0.9,1.2,1.2,2.8,0.8,4.3l-19.8,142H194.2z M131.2,333.3l11.7-73.6l-63.8,73.6H131.2z M385.9,300.7c1.7-0.2,3.5,0.5,4.6,1.8
		c1.1,1.3,1.5,3.1,1.1,4.8l-11.1,79.9c-0.3,4-2.2,7.8-5.3,10.5c-22,15.2-48.3,23-75,22.3c-54.6,0-94-46.4-94-103.6
		c0-78.4,54.4-136.3,124.4-136.3c26.7-0.6,52.2,11.1,69.1,31.6c2,3,1.4,7.1-1.4,9.4l-18.1,16.6c-3.1,3-8,3-11.1,0
		c-10.9-11-25.9-17-41.5-16.6c-40.2,0-75,41.3-75,89.3c0,35.4,22.5,66,52,66c11.9,0.4,23.7-2.3,34.1-8l4-29.3h-21.4
		c-1.5,0-3-0.7-3.9-1.9c-1-1.2-1.4-2.7-1.1-4.2l3.6-26c0.5-3.4,3.3-6.1,6.8-6.3H385.9z M107.2,495.3c2.5-3.3,2.8-8.9,2.8-14.9
		s-0.3-10.6-2.8-13.9c-2.5-3.3-6.3-4.6-10.3-4.6c-4,0-7.8,1.3-10.3,4.6c-2.5,3.4-2.8,8-2.8,13.9c0,6,0.3,11.6,2.8,14.9
		c2.5,3.3,6.3,4.6,10.3,4.6C100.9,499.9,104.7,498.6,107.2,495.3z M112.9,461c4.4,5.4,5,12.1,5,19.4c0,7.4-0.6,15-5,20.4
		c-4.4,5.4-10.8,6.8-16,6.8c-5.2,0-11.6-1.4-16-6.8c-4.4-5.4-5-13.5-5-20.4s0.6-14,5-19.4c4.4-5.4,10.8-6.8,16-6.8
		C102.1,454.2,108.5,455.6,112.9,461z M161.3,459.4l0,41.4c0,1.9-1.2,4.2-2.8,4.8c-6,2.3-12.6,2.1-15.7,2.1
		c-4.8,0-11.3-1.7-15.3-6.7c-4.5-5.7-4.9-13.5-4.9-20.8l0-20.8c0-2.2,1.7-4,3.8-4c2.1,0,3.8,1.8,3.8,4v20.8c0,5.9,0.3,11.7,2.7,15
		c2.4,3.3,6.2,4.8,9.8,4.8c7.2,0,9.4-0.9,9.9-1.1c0.5-0.2,1-0.8,1-1.5l0-37.9c0-2.2,1.7-4,3.8-4
		C159.6,455.4,161.3,457.2,161.3,459.4z M294.3,459.4l0,41.4c0,1.9-1.2,4.2-2.8,4.8c-6,2.3-12.6,2.1-15.7,2.1
		c-4.8,0-11.3-1.7-15.2-6.7c-4.5-5.7-4.9-13.5-4.9-20.8l0-20.8c0-2.2,1.7-4,3.8-4c2.1,0,3.8,1.8,3.8,4v20.8c0,5.9,0.3,11.7,2.7,15
		c2.3,3.3,6.2,4.8,9.8,4.8c7.2,0,9.4-0.9,9.9-1.1c0.5-0.2,1-0.8,1-1.5l0-37.9c0-2.2,1.7-4,3.8-4
		C292.6,455.4,294.3,457.2,294.3,459.4z M241.8,490.9v-25.5c0-0.7-0.4-1.3-1-1.5c-3.5-1.3-7.6-2-10.7-2c-3.9,0-7.8,1.2-10.3,4.5
		c-2.5,3.3-2.8,9.4-2.8,15.3c0,5.9,0.3,10.5,2.8,13.8c2.5,3.3,6.3,4.5,10.3,4.5c4,0,7.6-1.3,9.2-2.9
		C240.7,495.7,241.8,493.8,241.8,490.9z M249.7,461.5v48.9c0,2.7-0.4,5.3-1.1,7.7c-0.7,2.4-1.8,4.5-3.3,6.3
		c-1.4,1.7-3.3,3.1-5.5,4.1c-2.2,1-4.7,1.5-7.6,1.5c-2.6,0-5.3-0.4-8.1-1.1c-4.4-1.2-6.5-2.5-8.1-3.4c-1.6-1-2.3-3.6-1.3-5.4
		c1-1.8,3.3-2.3,4.6-1.6c1.2,0.6,4.8,2.4,6.8,2.9c2.1,0.5,4.1,0.8,6.1,0.8c3,0,5.4-1,7.1-3.1c1.7-2.1,2.5-5,2.5-8.7v-6.9
		c-1.7,1.9-7,4.2-11.8,4.2c-5.2,0-11.6-1.4-16-6.8c-4.4-5.3-5-12-5-19.3c0-7.3,0.6-15.4,5-20.7c4.4-5.3,10.9-6.7,16-6.7
		c3.3,0,10.7,0.4,17.2,3.4C248.7,458.2,249.7,459.7,249.7,461.5z M373.2,464.9c-0.6-0.2-1.2-0.4-1.8-0.7c-2-1-6.7-2.1-8.8-2.1
		c-1.5,0-2.6,0.1-3.6,0.3c-0.9,0.2-1.8,0.5-2.5,0.9c-0.7,0.4-1.3,1-1.8,1.7c-0.5,0.7-0.7,1.5-0.7,2.5c0,3.3,3.3,6.2,9.7,7.7
		c7.6,1.6,16.3,5.6,16.3,16c0,2.3-0.6,5.1-1.5,7c-0.9,1.9-2.1,3.5-3.6,4.8c-1.5,1.3-3.4,2.4-5.6,3.1c-3,1-5.7,1.6-8.6,1.6
		c-3,0-9.5-0.5-14.1-3.9c-0.5-0.3-0.8-0.7-1.1-1.1c-0.5-0.7-0.8-1.5-0.8-2.4c0-2.2,1.7-3.9,3.7-3.9c0.6,0,1.2,0.2,1.8,0.5
		c0.2,0.1,0.3,0.2,0.5,0.3c3.4,2,7.4,2.6,10,2.6c1.9,0,5.9-0.4,8.7-2.5c1.7-1.3,2.7-3.7,2.7-6c0-4.4-5.1-7-9.8-8
		c-10.7-2.3-16.1-7.9-16.1-15.6c0-4.2,1.5-7.5,4.4-9.9c2.9-2.3,7.6-3.5,12-3.5s9.5,0.9,12.9,3.3c1.4,0.9,2.1,2.6,2.1,3.8
		c0,0,0,0.1,0,0.1c0,2-1.5,3.6-3.4,3.6C373.7,465,373.5,465,373.2,464.9z M59.9,495.5c2.5-3.3,2.8-8.7,2.8-14.6
		c0-5.9-0.3-11.3-2.8-14.6c-2.5-3.3-6.3-4.4-10.3-4.4c-4,0-7.6,1.2-9.2,2.8c-1.3,1.3-2.5,3.2-2.5,6.2v25.7c0,0.7,0.4,1.2,1,1.4h0
		c3.5,1.3,7.7,2,10.7,2C53.5,499.9,57.4,498.8,59.9,495.5z M65.5,460.9c4.4,5.3,5,12.8,5,20c0,7.3-0.6,14.7-5,20
		c-4.4,5.3-10.9,6.7-16,6.7c-3.3,0-10.4-0.4-16.8-3.2c-1.6-0.7-2.8-2.3-2.8-4.3l0-66.1c0-2.3,1.7-4.1,3.9-4.1c2.1,0,3.9,1.8,3.9,4.1
		v24.2c1.7-1.9,7-4.1,11.8-4.1C54.8,454.2,61.1,455.5,65.5,460.9z M188.5,493.8l13-35.8c0.7-2.1,3-3.1,4.9-2.3
		c1.9,0.8,2.9,3.1,2.2,5.1l-23.7,66c-0.7,2.1-2.9,3.1-4.9,2.3c-2-0.8-3-3.1-2.2-5.2l7.5-21c-3.1-1.2-5.2-3.5-6.6-7.6l-12.4-34.6
		c-0.7-2,0.3-4.3,2.2-5.1c1.9-0.8,4.1,0.3,4.9,2.3c2.1,6,11.6,33.8,12.8,35.7c0.2,0.2,0.6,0.9,1.2,0.9
		C187.9,494.5,188.3,494.2,188.5,493.8z M308.6,474.8h25.8c0-0.8,0-6.8-4.7-10.5c-3.2-2.5-6.8-2.5-8.7-2.5c-1.9,0-5,0.2-7.9,2.4
		C308.4,467.9,308.5,474,308.6,474.8z M337.3,460.9c0,0,5.1,5.5,5.1,17c0,2.4-1.8,4.3-4.1,4.3h-30c0.1,5.4,0.4,10.3,2.7,13.3
		c2.5,3.3,6.3,4.4,10.3,4.4c6,0.1,9.2-0.8,12.6-2.8c0.6-0.4,0.9-0.5,1.2-0.6c0.4-0.2,0.8-0.3,1.3-0.3c2,0,3.6,1.7,3.6,3.8
		c0,0.5-0.1,0.9-0.2,1.3c-0.3,0.9-0.9,1.9-1.8,2.5c-4.6,3.3-10.9,3.8-16.6,3.8c-5.2,0-11.6-1.4-16-6.7c-4.4-5.3-5-13.2-5-20
		c0-3.6,0.1-7,0.9-10.7c0.7-2.9,1.6-6.2,4-9.3c5.3-6.7,14.1-6.7,15.7-6.7C323,454.1,331.8,454.1,337.3,460.9z"/>
</g>
</svg>
