<svg width="477" height="448" viewBox="0 0 477 448" fill="none" xmlns="http://www.w3.org/2000/svg">
<mask id="mask0_0_1" style="mask-type:alpha" maskUnits="userSpaceOnUse" x="7" y="0" width="448" height="448">
<circle cx="231" cy="224" r="224" fill="white"/>
</mask>
<g mask="url(#mask0_0_1)">
<rect x="-10" y="-15" width="487" height="486" fill="white"/>
</g>
<mask id="mask1_0_1" style="mask-type:alpha" maskUnits="userSpaceOnUse" x="0" y="69" width="561" height="296">
<path d="M292.026 284H284.346L264.186 241.4V284H250.986V200H258.666L278.826 242.48V200H292.026V284ZM311.954 213.2V234.32H326.834V247.52H311.954V270.8H333.554V284H298.754V200H333.554V213.2H311.954ZM357.362 284.96C363.122 284.96 367.762 283.32 371.282 280.04C375.282 276.2 377.282 270.96 377.282 264.32V259.04C377.282 251.36 374.322 244.88 368.402 239.6C366.802 238.16 363.922 236.32 359.762 234.08C357.442 232.8 355.882 231.84 355.082 231.2C352.122 228.56 350.642 225.4 350.642 221.72V219.68C350.642 216.8 351.242 214.8 352.442 213.68C353.482 212.72 355.122 212.24 357.362 212.24C359.682 212.24 361.322 212.72 362.282 213.68C363.482 214.72 364.082 216.72 364.082 219.68V227H377.282V219.68C377.282 213.04 375.282 207.8 371.282 203.96C367.762 200.68 363.122 199.04 357.362 199.04C351.602 199.04 346.962 200.68 343.442 203.96C339.442 207.8 337.442 213.04 337.442 219.68V221.72C337.442 225.48 338.202 229 339.722 232.28C341.242 235.56 343.442 238.48 346.322 241.04C348.082 242.56 350.842 244.32 354.602 246.32C357.322 247.84 359.002 248.88 359.642 249.44C362.602 252.16 364.082 255.36 364.082 259.04V264.32C364.082 267.28 363.482 269.28 362.282 270.32C361.322 271.28 359.682 271.76 357.362 271.76C355.122 271.76 353.482 271.28 352.442 270.32C351.242 269.2 350.642 267.2 350.642 264.32V253.4H337.442V264.32C337.442 270.96 339.442 276.2 343.442 280.04C346.962 283.32 351.602 284.96 357.362 284.96ZM400.548 284.96C406.308 284.96 410.948 283.32 414.468 280.04C418.468 276.2 420.468 270.96 420.468 264.32V259.04C420.468 251.36 417.508 244.88 411.588 239.6C409.988 238.16 407.108 236.32 402.948 234.08C400.628 232.8 399.068 231.84 398.268 231.2C395.308 228.56 393.828 225.4 393.828 221.72V219.68C393.828 216.8 394.428 214.8 395.628 213.68C396.668 212.72 398.308 212.24 400.548 212.24C402.868 212.24 404.508 212.72 405.468 213.68C406.668 214.72 407.268 216.72 407.268 219.68V227H420.468V219.68C420.468 213.04 418.468 207.8 414.468 203.96C410.948 200.68 406.308 199.04 400.548 199.04C394.788 199.04 390.148 200.68 386.628 203.96C382.628 207.8 380.628 213.04 380.628 219.68V221.72C380.628 225.48 381.388 229 382.908 232.28C384.428 235.56 386.628 238.48 389.508 241.04C391.268 242.56 394.028 244.32 397.788 246.32C400.508 247.84 402.188 248.88 402.828 249.44C405.788 252.16 407.268 255.36 407.268 259.04V264.32C407.268 267.28 406.668 269.28 405.468 270.32C404.508 271.28 402.868 271.76 400.548 271.76C398.308 271.76 396.668 271.28 395.628 270.32C394.428 269.2 393.828 267.2 393.828 264.32V253.4H380.628V264.32C380.628 270.96 382.628 276.2 386.628 280.04C390.148 283.32 394.788 284.96 400.548 284.96Z" fill="black"/>
<path d="M238.051 199.64H222.091V214.88H238.051V199.64ZM237.931 223.64H221.971V284H237.931V223.64Z" fill="black"/>
<path d="M59 213.2V234.32H74V247.52H59V284H45.8V200H80.6V213.2H59ZM120.65 270.8H99.05V200H85.85V284H120.65V270.8ZM138.983 213.2V234.32H153.863V247.52H138.983V270.8H160.583V284H125.783V200H160.583V213.2H138.983ZM197.231 284L187.871 259.16L178.631 284H164.591L180.191 242.12L164.591 200H178.631L187.871 224.84L197.111 200H211.271L195.551 242.12L211.271 284H197.231Z" fill="black"/>
<path d="M124.576 303.4L128.996 351H135.932L140.148 337.264L144.364 351H151.3L155.72 303.4H148.58L145.588 338.352L140.964 323.8H139.332L134.708 338.352L131.784 303.4H124.576ZM186.02 310.608V303.4H163.852V310.608V329.988V351H186.02V343.792H171.06V329.988H181.26V323.052H171.06V310.608H186.02ZM215.381 326.792V326.656C217.081 325.364 218.101 323.392 218.101 320.4V311.56C218.101 306.256 214.157 303.4 210.213 303.4H194.845V351H210.893C214.837 351 218.781 348.144 218.781 342.84V334C218.781 330.6 217.489 328.22 215.381 326.792ZM202.053 310.608H208.173C209.873 310.608 210.893 312.036 210.893 313.736V320.672C210.893 322.372 209.873 323.8 207.493 323.8H202.053V310.608ZM211.573 340.664C211.573 342.364 210.553 343.792 208.853 343.792H202.053V330.6H207.493C209.873 330.6 211.573 332.028 211.573 334.408V340.664ZM258.652 303.4H243.284V351H249.472H258.652C262.596 351 266.54 348.144 266.54 342.84V311.56C266.54 306.256 262.596 303.4 258.652 303.4ZM259.332 340.664C259.332 342.364 258.312 343.792 256.612 343.792H250.492V310.608H256.612C258.312 310.608 259.332 312.036 259.332 313.736V340.664ZM298.902 310.608V303.4H276.734V310.608V329.988V351H298.902V343.792H283.942V329.988H294.142V323.052H283.942V310.608H298.902ZM324.795 303.4L318.539 343.52L312.351 303.4H305.007L312.827 351H317.383H324.251L332.071 303.4H324.795Z" fill="black"/>
<mask id="mask2_0_1" style="mask-type:alpha" maskUnits="userSpaceOnUse" x="52" y="297" width="352" height="62">
<rect x="342" y="297" width="62" height="62" fill="#9E9E9E"/>
<rect x="52" y="297" width="62" height="62" fill="#9E9E9E"/>
</mask>
<g mask="url(#mask2_0_1)">
<path d="M56 326.5H407.001" stroke="black" stroke-width="7"/>
</g>
<path d="M175.5 69V109H189V91L221.747 124.196L188.5 157V137.5H175.5V179H215.5V165.5H197.5L230.696 132.753L263.5 166H244V179H285.5V139H272V157L239.253 123.804L272.5 91V110.5H285.5V69H245.5V82.5H263.5L230.304 115.247L197.5 82H217V69H175.5Z" fill="black"/>
</mask>
<g mask="url(#mask1_0_1)">
<rect x="-10" y="-15" width="487" height="486" fill="#5E5E5E"/>
</g>
</svg>
