<svg width="700" height="300" version="1.1" viewBox="0 0 185.21 79.375" xmlns="http://www.w3.org/2000/svg">
  <g transform="translate(-12.082 -81.939)">
    <path d="m24.562 110.59 80.841-20.65 79.962 20.43 0.21967 23.945-79.743 20.21-81.28-20.21z" fill="#f6f3ea"/>
    <g transform="translate(12.48 8)">
      <g transform="matrix(.26458 0 0 .26458 64.034 59.519)" style="font-variation-settings:'HGHT' 299;white-space:pre" aria-label="FLEXINESS">
        <path fill="#32325d" d="m381.92 249.74q-10.491 0-15.783-5.8386-5.2912-5.9298-5.2912-17.516v-7.207h17.607v7.207q0 2.0982 1.0035 3.2842 1.0947 1.186 2.2807 1.186h0.18246q1.2772 0 2.007-0.6386 0.82106-0.6386 0.82106-1.6421v-6.386q0-0.82106-0.6386-1.6421-0.54737-0.82106-1.8246-1.6421-1.2772-0.91229-3.3754-1.9158-0.91228-0.36491-1.8246-0.82106-4.379-1.8246-7.8456-4.2877-3.3754-2.5544-5.7474-6.6597t-2.3719-9.7614v-6.5684q0.0912-9.6702 5.3825-14.232 5.2912-4.6526 15.235-4.6526h0.27369q9.0316 0 15.144 4.7439 6.1123 4.7439 6.1123 16.604v8.6667h-17.516v-7.0246q0-1.7333-0.72982-2.9193-0.72983-1.186-2.4632-1.186h-0.18246q-1.0947 0-1.8246 0.63859-0.72982 0.6386-0.72982 1.5509v6.2035q0 0.72983 0.36491 1.3684 0.45614 0.6386 1.4596 1.4596 1.0948 0.72983 2.4632 1.3684 1.3684 0.72982 2.7368 1.3684 1.186 0.54737 2.2807 1.186 4.0141 2.007 7.0246 4.4702 3.1018 2.4632 5.1088 6.2948 2.0983 3.7404 2.1895 8.9404v6.4772q-0.0912 9.4878-5.6562 14.505-5.4737 5.0176-15.6 5.0176z"/>
      </g>
      <g transform="matrix(.26458 0 0 .26458 52.969 56.364)" style="font-variation-settings:'HGHT' 349, 'wdth' 205;white-space:pre" aria-label="FLEXINES">
        <path fill="#32325d" d="m371.64 268.77q-11.621 0-17.482-6.4674-5.8611-6.5684-5.8611-19.402v-11.318h19.503v11.318q0 2.3242 1.1116 3.6379 1.2126 1.3137 2.5263 1.3137h0.80842q1.4147 0 2.2232-0.70737 0.90947-0.70737 0.90947-1.819v-10.408q0-1.0105-0.70737-1.92-0.60632-1.0105-2.1221-2.021-1.4147-1.0105-4.0421-2.2232-1.1116-0.40421-2.2232-0.90947-4.7495-1.92-8.6905-4.8505-3.84-2.9305-6.4674-7.4779-2.5263-4.6484-2.5263-10.914v-10.813q0.10105-10.712 5.9621-15.764 5.861-5.1537 16.876-5.1537h0.90947q10.004 0 16.775 5.2547 6.7705 5.1537 6.7705 18.392v12.935h-19.402v-11.116q0-2.0211-0.80842-3.3347t-2.7284-1.3137h-0.80843q-1.2126 0-2.021 0.70736-0.80842 0.70737-0.80842 1.7179v10.408q0 0.80842 0.50526 1.6168 0.50527 0.70737 1.7179 1.6168 1.2126 0.90948 2.9305 1.7179 1.5158 0.80842 3.1326 1.5158 1.4147 0.60631 2.6274 1.2126 4.3453 2.3242 7.781 5.1537 3.4358 2.8295 5.76 7.0737t2.3242 10.004v10.712q0 10.509-6.1642 16.067-6.1642 5.5579-17.381 5.5579z"/>
      </g>
      <g transform="matrix(.26458 0 0 .26458 13.47 55.887)" style="font-variation-settings:'HGHT' 474, 'wdth' 350;white-space:pre" aria-label="FLEXINE">
        <path fill="#32325d" d="m428.31 162.25h60.648v22.333h-39.629v28.025h39.629v20.581h-39.629v28.244h39.629v22.333h-60.648z"/>
      </g>
      <g transform="matrix(.26458 0 0 .26458 -8.5303 55.994)" style="font-variation-settings:'HGHT' 575, 'wdth' 425;white-space:pre" aria-label="FLEXIN">
        <path fill="#32325d" d="m413.75 150.26h24.813l38.326 93.542q0.93192 1.9803 3.0288 12.581 0.58246 3.1453 1.1649 5.8246l-6.7565-4.7761 11.416-2.5628-4.3102 7.106q-0.58246-1.8639-1.2814-9.0863-0.58245-7.2224-0.58245-10.135l-0.11649-92.494h22.017v147.01h-25.162l-38.093-95.29q-0.58246-1.6309-1.5144-5.1256-0.81543-3.4947-1.6309-6.873-0.34947-1.8639-0.58246-2.7958-0.23298-0.93193-0.69894-2.7958l7.6884 4.7761-12.348 3.0288 4.1937-6.9895q0.69895 0.93193 1.1649 5.2421 0.46597 4.1937 0.81544 9.2028 0.23298 2.7958 0.34947 5.7081l0.23299 91.911h-22.133z"/>
      </g>
      <g transform="matrix(.26458 0 0 .26458 -59.587 57.494)" style="font-variation-settings:'HGHT' 674, 'wdth' 674;white-space:pre" aria-label="FLEXI">
        <path fill="#32325d" d="m565.5 137.35h24.858v176.13h-24.858z"/>
      </g>
      <g transform="matrix(.26458 0 0 .26458 -14.531 56.025)" style="font-variation-settings:'HGHT' 575, 'wdth' 425;white-space:pre" aria-label="FLEX">
        <path fill="#32325d" d="m286.43 297.27 29.006-73.156-28.89-73.855h28.191l16.542 46.247 0.34947 1.1649q2.2133 5.7081 2.3298 6.9895h0.81544q0.11649-0.93192 2.3298-6.64l0.58246-1.5144 16.425-46.247h28.191l-29.006 73.855 29.123 73.156h-28.191l-16.658-46.247-0.69895-1.7474q-1.9804-4.8926-2.0968-6.0575h-0.81544q-0.11649 1.7474-2.0968 6.174l-0.46597 1.6309-16.658 46.247z"/>
      </g>
      <g transform="matrix(.26458 0 0 .26458 -3.5304 55.968)" style="font-variation-settings:'HGHT' 474, 'wdth' 350;white-space:pre" aria-label="FLE">
        <path fill="#32325d" d="m178.75 162.25h60.648v22.333h-39.629v28.025h39.629v20.581h-39.629v28.244h39.629v22.333h-60.648z"/>
      </g>
      <g transform="matrix(.26458 0 0 .26458 3.4693 55.834)" style="font-variation-settings:'HGHT' 333, 'wdth' 276;white-space:pre" aria-label="FL">
        <path fill="#32325d" d="m99.2 176.71h20.615v70.131h25.667v20.716h-46.282z"/>
      </g>
      <g transform="matrix(.26458 0 0 .26458 2.4692 53.108)" style="font-variation-settings:'HGHT' 200, 'wdth' 274;white-space:pre" aria-label="F">
        <path fill="#32325d" d="m47.36 196.82h46.484v20.716h-27.082v7.0737h24.657v18.998h-24.657v23.949h-19.402z"/>
      </g>
      <circle fill="#32325d" cx="93.3" cy="88.3" r="3.5" stroke-width=".26458"/>
    </g>
  </g>
</svg>
